# Blender 4.4.3
# www.blender.org
mtllib house models 1,2, and 3.mtl
o Cube
v 1.986366 1.780102 -1.486891
v 1.986366 -0.549919 -1.486891
v 1.986366 1.780102 1.595795
v 1.986366 -0.549919 1.595795
v -1.096320 1.780102 -1.486891
v -1.096320 -0.549919 -1.486891
v -1.096320 1.780102 1.595795
v -1.096320 -0.549919 1.595795
vn -0.0000 1.0000 -0.0000
vn -0.0000 -0.0000 1.0000
vn -1.0000 -0.0000 -0.0000
vn -0.0000 -1.0000 -0.0000
vn 1.0000 -0.0000 -0.0000
vn -0.0000 -0.0000 -1.0000
vt 0.625000 0.500000
vt 0.875000 0.500000
vt 0.875000 0.750000
vt 0.625000 0.750000
vt 0.375000 0.750000
vt 0.625000 1.000000
vt 0.375000 1.000000
vt 0.375000 0.000000
vt 0.625000 0.000000
vt 0.625000 0.250000
vt 0.375000 0.250000
vt 0.125000 0.500000
vt 0.375000 0.500000
vt 0.125000 0.750000
s 0
usemtl Material
f 1/1/1 5/2/1 7/3/1 3/4/1
f 4/5/2 3/4/2 7/6/2 8/7/2
f 8/8/3 7/9/3 5/10/3 6/11/3
f 6/12/4 2/13/4 4/5/4 8/14/4
f 2/13/5 1/1/5 3/4/5 4/5/5
f 6/11/6 5/10/6 1/1/6 2/13/6
o Cube.001
v -1.074932 1.782523 1.574407
v 0.445023 3.039374 0.054452
v -1.074932 1.782523 -1.465504
v 1.964978 1.782523 1.574407
v 1.964978 1.782523 -1.465504
vn -0.6373 0.7707 -0.0000
vn -0.0000 0.7707 -0.6373
vn 0.6373 0.7707 -0.0000
vn -0.0000 0.7707 0.6373
vn -0.0000 -1.0000 -0.0000
vt 0.375000 0.000000
vt 0.625000 0.250000
vt 0.375000 0.250000
vt 0.625000 0.500000
vt 0.375000 0.500000
vt 0.625000 0.750000
vt 0.375000 0.750000
vt 0.625000 1.000000
vt 0.375000 1.000000
vt 0.125000 0.500000
vt 0.125000 0.750000
s 0
f 9/15/7 10/16/7 11/17/7
f 11/17/8 10/18/8 13/19/8
f 13/19/9 10/20/9 12/21/9
f 12/21/10 10/22/10 9/23/10
f 11/24/11 13/19/11 12/21/11 9/25/11
o Cube.002
v 1.986366 1.780102 3.397495
v 1.986366 -0.549919 3.397495
v 1.986366 1.780102 8.520348
v 1.986366 -0.549919 8.520348
v -1.096320 1.780102 3.397495
v -1.096320 -0.549919 3.397495
v -1.096320 1.780102 8.520348
v -1.096320 -0.549919 8.520348
vn -0.0000 1.0000 -0.0000
vn -0.0000 -0.0000 1.0000
vn -1.0000 -0.0000 -0.0000
vn -0.0000 -1.0000 -0.0000
vn 1.0000 -0.0000 -0.0000
vn -0.0000 -0.0000 -1.0000
vt 0.625000 0.500000
vt 0.875000 0.500000
vt 0.875000 0.750000
vt 0.625000 0.750000
vt 0.375000 0.750000
vt 0.625000 1.000000
vt 0.375000 1.000000
vt 0.375000 0.000000
vt 0.625000 0.000000
vt 0.625000 0.250000
vt 0.375000 0.250000
vt 0.125000 0.500000
vt 0.375000 0.500000
vt 0.125000 0.750000
s 0
usemtl Material
f 14/26/12 18/27/12 20/28/12 16/29/12
f 17/30/13 16/29/13 20/31/13 21/32/13
f 21/33/14 20/34/14 18/35/14 19/36/14
f 19/37/15 15/38/15 17/30/15 21/39/15
f 15/38/16 14/26/16 16/29/16 17/30/16
f 19/36/17 18/35/17 14/26/17 15/38/17
o Cube.003
v -1.074932 1.782523 6.458794
v 0.445023 3.039374 4.938838
v -1.074932 1.782523 3.418883
v 1.964978 1.782523 6.458794
v 1.964978 1.782523 3.418883
v -1.074932 1.782523 8.507451
v 0.445023 3.039374 6.987495
v 1.964978 1.782523 8.507451
vn -0.6373 0.7707 -0.0000
vn -0.0000 0.7707 -0.6373
vn 0.6373 0.7707 -0.0000
vn -0.0000 -1.0000 -0.0000
vn -0.0000 0.7707 0.6373
vt 0.375000 0.000000
vt 0.625000 0.250000
vt 0.375000 0.250000
vt 0.625000 0.500000
vt 0.375000 0.500000
vt 0.625000 0.750000
vt 0.375000 0.750000
vt 0.125000 0.500000
vt 0.125000 0.750000
vt 0.625000 1.000000
vt 0.375000 1.000000
s 0
f 22/40/18 23/41/18 24/42/18
f 24/42/19 23/43/19 26/44/19
f 26/44/20 23/45/20 25/46/20
f 25/46/20 23/45/20 28/45/20 29/46/20
f 24/47/21 26/44/21 25/46/21 22/48/21
f 29/46/22 28/49/22 27/50/22
f 22/48/21 25/46/21 29/46/21 27/48/21
f 23/41/18 22/40/18 27/40/18 28/41/18
o Cube.004
v 1.986366 2.593692 12.851668
v 1.986366 -1.363508 12.851668
v 1.986366 2.593692 15.934354
v 1.986366 -1.363508 15.934354
v -1.096320 2.593692 12.851668
v -1.096320 -1.363508 12.851668
v -1.096320 2.593692 15.934354
v -1.096320 -1.363508 15.934354
vn -0.0000 1.0000 -0.0000
vn -0.0000 -0.0000 1.0000
vn -1.0000 -0.0000 -0.0000
vn -0.0000 -1.0000 -0.0000
vn 1.0000 -0.0000 -0.0000
vn -0.0000 -0.0000 -1.0000
vt 0.625000 0.500000
vt 0.875000 0.500000
vt 0.875000 0.750000
vt 0.625000 0.750000
vt 0.375000 0.750000
vt 0.625000 1.000000
vt 0.375000 1.000000
vt 0.375000 0.000000
vt 0.625000 0.000000
vt 0.625000 0.250000
vt 0.375000 0.250000
vt 0.125000 0.500000
vt 0.375000 0.500000
vt 0.125000 0.750000
s 0
usemtl Material
f 30/51/23 34/52/23 36/53/23 32/54/23
f 33/55/24 32/54/24 36/56/24 37/57/24
f 37/58/25 36/59/25 34/60/25 35/61/25
f 35/62/26 31/63/26 33/55/26 37/64/26
f 31/63/27 30/51/27 32/54/27 33/55/27
f 35/61/28 34/60/28 30/51/28 31/63/28
o Cube.005
v -1.074932 2.597802 15.912967
v 0.445023 4.732379 14.393011
v -1.074932 2.597802 12.873055
v 1.964978 2.597802 15.912967
v 1.964978 2.597802 12.873055
vn -0.8146 0.5800 -0.0000
vn -0.0000 0.5800 -0.8146
vn 0.8146 0.5800 -0.0000
vn -0.0000 0.5800 0.8146
vn -0.0000 -1.0000 -0.0000
vt 0.375000 0.000000
vt 0.625000 0.250000
vt 0.375000 0.250000
vt 0.625000 0.500000
vt 0.375000 0.500000
vt 0.625000 0.750000
vt 0.375000 0.750000
vt 0.625000 1.000000
vt 0.375000 1.000000
vt 0.125000 0.500000
vt 0.125000 0.750000
s 0
f 38/65/29 39/66/29 40/67/29
f 40/67/30 39/68/30 42/69/30
f 42/69/31 39/70/31 41/71/31
f 41/71/32 39/72/32 38/73/32
f 40/74/33 42/69/33 41/71/33 38/75/33
