# Blender 4.4.3
# www.blender.org
mtllib house models 2.mtl
o Cube.002
v 1.986366 1.780102 3.397495
v 1.986366 -0.549919 3.397495
v 1.986366 1.780102 8.520348
v 1.986366 -0.549919 8.520348
v -1.096320 1.780102 3.397495
v -1.096320 -0.549919 3.397495
v -1.096320 1.780102 8.520348
v -1.096320 -0.549919 8.520348
vn -0.0000 1.0000 -0.0000
vn -0.0000 -0.0000 1.0000
vn -1.0000 -0.0000 -0.0000
vn -0.0000 -1.0000 -0.0000
vn 1.0000 -0.0000 -0.0000
vn -0.0000 -0.0000 -1.0000
vt 0.625000 0.500000
vt 0.875000 0.500000
vt 0.875000 0.750000
vt 0.625000 0.750000
vt 0.375000 0.750000
vt 0.625000 1.000000
vt 0.375000 1.000000
vt 0.375000 0.000000
vt 0.625000 0.000000
vt 0.625000 0.250000
vt 0.375000 0.250000
vt 0.125000 0.500000
vt 0.375000 0.500000
vt 0.125000 0.750000
s 0
usemtl Material
f 1/1/1 5/2/1 7/3/1 3/4/1
f 4/5/2 3/4/2 7/6/2 8/7/2
f 8/8/3 7/9/3 5/10/3 6/11/3
f 6/12/4 2/13/4 4/5/4 8/14/4
f 2/13/5 1/1/5 3/4/5 4/5/5
f 6/11/6 5/10/6 1/1/6 2/13/6
o Cube.003
v -1.074932 1.782523 6.458794
v 0.445023 3.039374 4.938838
v -1.074932 1.782523 3.418883
v 1.964978 1.782523 6.458794
v 1.964978 1.782523 3.418883
v -1.074932 1.782523 8.507451
v 0.445023 3.039374 6.987495
v 1.964978 1.782523 8.507451
vn -0.6373 0.7707 -0.0000
vn -0.0000 0.7707 -0.6373
vn 0.6373 0.7707 -0.0000
vn -0.0000 -1.0000 -0.0000
vn -0.0000 0.7707 0.6373
vt 0.375000 0.000000
vt 0.625000 0.250000
vt 0.375000 0.250000
vt 0.625000 0.500000
vt 0.375000 0.500000
vt 0.625000 0.750000
vt 0.375000 0.750000
vt 0.125000 0.500000
vt 0.125000 0.750000
vt 0.625000 1.000000
vt 0.375000 1.000000
s 0
f 9/15/7 10/16/7 11/17/7
f 11/17/8 10/18/8 13/19/8
f 13/19/9 10/20/9 12/21/9
f 12/21/9 10/20/9 15/20/9 16/21/9
f 11/22/10 13/19/10 12/21/10 9/23/10
f 16/21/11 15/24/11 14/25/11
f 9/23/10 12/21/10 16/21/10 14/23/10
f 10/16/7 9/15/7 14/15/7 15/16/7
