# Blender 4.4.3
# www.blender.org
mtllib mailbox model prototype.mtl
o Cube
v 0.344885 3.492457 -0.344885
v 0.344885 -3.492457 -0.344885
v 0.344885 3.492457 0.344885
v 0.344885 -3.492457 0.344885
v -0.344885 3.492457 -0.344885
v -0.344885 -3.492457 -0.344885
v -0.344885 3.492457 0.344885
v -0.344885 -3.492457 0.344885
v 0.344885 1.746228 -0.344885
v 0.344885 0.000000 -0.344885
v 0.344885 -1.746228 -0.344885
v -0.344885 -1.746228 0.344885
v -0.344885 0.000000 0.344885
v -0.344885 1.746228 0.344885
v 0.344885 1.746228 0.344885
v 0.344885 0.000000 0.344885
v 0.344885 -1.746228 0.344885
v -0.344885 1.746228 -0.344885
v -0.344885 0.000000 -0.344885
v -0.344885 -1.746228 -0.344885
vn -0.0000 1.0000 -0.0000
vn -0.0000 -0.0000 1.0000
vn -1.0000 -0.0000 -0.0000
vn -0.0000 -1.0000 -0.0000
vn 1.0000 -0.0000 -0.0000
vn -0.0000 -0.0000 -1.0000
vt 0.625000 0.500000
vt 0.875000 0.500000
vt 0.875000 0.750000
vt 0.625000 0.750000
vt 0.562500 0.750000
vt 0.625000 1.000000
vt 0.562500 1.000000
vt 0.562500 0.000000
vt 0.625000 0.000000
vt 0.625000 0.250000
vt 0.562500 0.250000
vt 0.125000 0.500000
vt 0.375000 0.500000
vt 0.375000 0.750000
vt 0.125000 0.750000
vt 0.562500 0.500000
vt 0.375000 0.250000
vt 0.437500 0.250000
vt 0.437500 0.500000
vt 0.500000 0.250000
vt 0.500000 0.500000
vt 0.437500 0.750000
vt 0.500000 0.750000
vt 0.375000 0.000000
vt 0.437500 0.000000
vt 0.500000 0.000000
vt 0.437500 1.000000
vt 0.375000 1.000000
vt 0.500000 1.000000
s 0
usemtl Material
f 1/1/1 5/2/1 7/3/1 3/4/1
f 15/5/2 3/4/2 7/6/2 14/7/2
f 14/8/3 7/9/3 5/10/3 18/11/3
f 6/12/4 2/13/4 4/14/4 8/15/4
f 9/16/5 1/1/5 3/4/5 15/5/5
f 18/11/6 5/10/6 1/1/6 9/16/6
f 6/17/6 20/18/6 11/19/6 2/13/6
f 20/18/6 19/20/6 10/21/6 11/19/6
f 19/20/6 18/11/6 9/16/6 10/21/6
f 2/13/5 11/19/5 17/22/5 4/14/5
f 11/19/5 10/21/5 16/23/5 17/22/5
f 10/21/5 9/16/5 15/5/5 16/23/5
f 8/24/3 12/25/3 20/18/3 6/17/3
f 12/25/3 13/26/3 19/20/3 20/18/3
f 13/26/3 14/8/3 18/11/3 19/20/3
f 4/14/2 17/22/2 12/27/2 8/28/2
f 17/22/2 16/23/2 13/29/2 12/27/2
f 16/23/2 15/5/2 14/7/2 13/29/2
o Cube.001
v -1.000000 3.487400 2.233350
v -1.000000 3.487400 -2.233350
v 1.000000 3.487400 2.233350
v 1.000000 3.487400 -2.233350
v -0.203914 5.487400 2.233350
v -1.000000 4.691314 2.233350
v -0.601957 5.380744 2.233350
v -0.893345 5.089356 2.233350
v -1.000000 4.691314 -2.233350
v -0.203914 5.487400 -2.233350
v -0.893345 5.089356 -2.233350
v -0.601957 5.380744 -2.233350
v 1.000000 4.691314 2.233350
v 0.203914 5.487400 2.233350
v 0.893345 5.089356 2.233350
v 0.601957 5.380744 2.233350
v 0.203914 5.487400 -2.233350
v 1.000000 4.691314 -2.233350
v 0.601957 5.380744 -2.233350
v 0.893345 5.089356 -2.233350
v -1.000000 3.487400 -2.233350
v -0.893345 5.089356 -2.233350
v 1.000000 3.487400 -2.233350
v -0.601957 5.380744 -2.233350
v -0.203914 5.487400 -2.233350
v -0.203914 5.487400 -2.233350
v -0.601957 5.380744 -2.233350
v -0.893345 5.089356 -2.233350
v -1.000000 4.691314 -2.233350
v 0.601957 5.380744 -2.233350
v 0.203914 5.487400 -2.233350
v 1.000000 3.487400 -2.233350
v 0.893345 5.089356 -2.233350
v 1.000000 4.691314 -2.233350
v -1.000000 3.487400 -2.233350
v -1.000000 3.487400 -2.233350
v -1.000000 3.487400 -2.233350
v 1.000000 3.487400 -2.233350
v 0.810503 3.741296 -1.810136
v 0.810503 3.741296 1.810136
v -0.810503 3.741296 1.810136
v -0.203914 5.487400 -2.233350
v -0.601957 5.380744 -2.233350
v -0.165273 5.362301 1.810136
v -0.893345 5.089356 -2.233350
v -0.203914 5.487400 -2.233350
v -1.000000 4.691314 -2.233350
v 0.601957 5.380744 -2.233350
v 0.203914 5.487400 -2.233350
v -0.487888 5.275857 1.810136
v -0.724058 5.039687 1.810136
v 0.893345 5.089356 -2.233350
v -0.724058 5.039687 -1.810136
v 1.000000 4.691314 -2.233350
v -0.487888 5.275857 -1.810136
v -1.000000 4.691314 -2.233350
v 0.601957 5.380744 -2.233350
v 0.203914 5.487400 -2.233350
v 0.893345 5.089356 -2.233350
v 1.000000 4.691314 -2.233350
v -0.810503 4.717072 1.810136
v -0.810503 4.717072 -1.810136
v 0.487888 5.275857 -1.810136
v 0.165273 5.362301 -1.810136
v 0.165273 5.362301 1.810136
v 0.487888 5.275857 1.810136
v 0.724058 5.039687 -1.810136
v 0.724058 5.039687 1.810136
v 0.810503 4.717072 -1.810136
v 0.810503 4.717072 1.810136
v 1.000000 3.487400 -2.233350
v -0.810503 3.741296 -1.810136
v -0.165273 5.362301 -1.810136
v -0.601957 5.380744 -2.233350
v -0.893345 5.089356 -2.233350
v -1.000000 4.691314 -2.233350
v 0.601957 5.380744 -2.233350
v 0.203914 5.487400 -2.233350
v 0.893345 5.089356 -2.233350
v 1.000000 4.691314 -2.233350
vn -0.0000 -1.0000 -0.0000
vn -1.0000 -0.0000 -0.0000
vn 1.0000 -0.0000 -0.0000
vn -0.0000 1.0000 -0.0000
vn 0.2588 -0.9659 -0.0000
vn 0.7071 -0.7071 -0.0000
vn 0.9659 -0.2588 -0.0000
vn -0.2588 -0.9659 -0.0000
vn -0.7071 -0.7071 -0.0000
vn -0.9659 -0.2588 -0.0000
vn -0.0000 -0.0000 -1.0000
vn -0.2588 0.9659 -0.0000
vn -0.7071 0.7071 -0.0000
vn -0.9659 0.2588 -0.0000
vn 0.2588 0.9659 -0.0000
vn 0.7071 0.7071 -0.0000
vn 0.9659 0.2588 -0.0000
vn -0.0000 -0.0000 1.0000
vn -0.0000 -0.8575 0.5144
vn -0.2473 0.9228 0.2954
vn -0.6641 0.6641 0.3436
vn -0.8916 0.2389 0.3847
vn 0.2473 0.9228 0.2954
vn 0.6641 0.6641 0.3436
vn 0.8916 0.2389 0.3847
vn -0.9127 -0.0000 0.4087
vn -0.0000 0.9590 0.2835
vn 0.9127 -0.0000 0.4087
vt 0.724511 0.500000
vt 0.724511 0.750000
vt 0.775489 0.750000
vt 0.775489 0.500000
vt 0.375000 0.500000
vt 0.375000 0.750000
vt 0.525489 0.750000
vt 0.525489 0.500000
vt 0.375000 0.000000
vt 0.375000 0.250000
vt 0.525489 0.250000
vt 0.525489 0.000000
vt 0.125000 0.500000
vt 0.125000 0.750000
vt 0.875000 0.750000
vt 0.875000 0.500000
vt 0.625000 0.000000
vt 0.575245 0.000000
vt 0.575245 0.250000
vt 0.625000 0.250000
vt 0.674755 0.500000
vt 0.674755 0.750000
vt 0.575245 0.500000
vt 0.575245 0.750000
vt 0.375000 1.000000
vt 0.525489 1.000000
vt 0.575245 0.986668
vt 0.611668 0.950245
vt 0.625000 0.900489
vt 0.625000 0.849511
vt 0.611668 0.799755
vt 0.575245 0.763332
vt 0.000000 0.000000
s 0
f 37/30/7 34/31/7 25/32/7 30/33/7
f 24/34/8 23/35/8 33/36/8 38/37/8
f 21/38/9 22/39/9 29/40/9 26/41/9
f 22/42/10 21/43/10 23/35/10 24/34/10
f 25/32/11 27/44/11 32/45/11 30/33/11
f 27/46/12 28/47/12 31/48/12 32/49/12
f 28/47/13 26/41/13 29/40/13 31/48/13
f 37/30/14 39/50/14 36/51/14 34/31/14
f 39/50/15 40/52/15 35/53/15 36/51/15
f 40/52/16 38/37/16 33/36/16 35/53/16
f 23/35/17 21/54/17 26/55/17 28/56/17 27/57/17 25/58/17 34/59/17 36/60/17 35/61/17 33/36/17
f 46/33/10 47/45/10 63/45/10 62/33/10
f 47/49/10 48/48/10 65/48/10 63/49/10
f 48/48/10 49/40/10 67/40/10 65/48/10
f 43/34/10 54/37/10 74/37/10 58/34/10
f 41/42/10 43/34/10 58/34/10 56/42/10
f 53/52/10 50/50/10 68/50/10 72/52/10
f 51/30/10 46/33/10 62/33/10 69/30/10
f 54/37/10 53/52/10 72/52/10 74/37/10
f 50/50/10 51/30/10 69/30/10 68/50/10
f 49/40/10 41/39/10 56/39/10 67/40/10
f 32/49/10 31/48/10 48/48/10 47/49/10
f 30/33/10 32/45/10 47/45/10 46/33/10
f 29/40/10 22/39/10 41/39/10 49/40/10
f 39/50/10 37/30/10 51/30/10 50/50/10
f 38/37/10 40/52/10 53/52/10 54/37/10
f 37/30/10 30/33/10 46/33/10 51/30/10
f 40/52/10 39/50/10 50/50/10 53/52/10
f 22/42/10 24/34/10 43/34/10 41/42/10
f 24/34/10 38/37/10 54/37/10 43/34/10
f 31/48/10 29/40/10 49/40/10 48/48/10
f 84/30/10 93/33/10 64/32/10 85/31/10
f 67/40/10 56/39/10 55/39/10 76/40/10
f 62/33/10 63/45/10 44/45/10 45/33/10
f 63/49/10 65/48/10 42/48/10 44/49/10
f 65/48/10 67/40/10 76/40/10 42/48/10
f 58/34/10 74/37/10 80/37/10 52/34/10
f 72/52/10 68/50/10 77/50/10 79/52/10
f 56/42/10 58/34/10 52/34/10 55/42/10
f 69/30/10 62/33/10 45/33/10 78/30/10
f 74/37/10 72/52/10 79/52/10 80/37/10
f 68/50/10 69/30/10 78/30/10 77/50/10
f 77/50/10 78/30/10 98/30/10 97/50/10
f 76/62/10 55/62/10 57/62/10 96/62/10
f 55/42/10 52/34/10 91/34/10 57/42/10
f 42/48/10 76/40/10 96/40/10 95/48/10
f 45/33/10 44/45/10 94/45/10 66/33/10
f 52/62/10 80/62/10 100/62/10 91/62/10
f 44/49/10 42/48/10 95/48/10 94/49/10
f 79/52/10 77/50/10 97/50/10 99/52/10
f 78/30/10 45/33/10 66/33/10 98/30/10
f 80/37/10 79/52/10 99/52/10 100/37/10
f 59/34/9 89/37/9 90/36/9 60/35/9
f 61/38/8 81/41/8 82/40/8 92/39/8
f 92/42/7 59/34/7 60/35/7 61/43/7
f 64/32/18 93/33/18 75/45/18 70/44/18
f 70/46/19 75/49/19 73/48/19 71/47/19
f 71/47/20 73/48/20 82/40/20 81/41/20
f 84/30/21 85/31/21 86/51/21 83/50/21
f 83/50/22 86/51/22 88/53/22 87/52/22
f 87/52/23 88/53/23 90/36/23 89/37/23
f 60/35/24 90/36/24 88/61/24 86/60/24 85/59/24 64/58/24 70/57/24 71/56/24 81/55/24 61/54/24
f 59/34/25 92/42/25 57/42/25 91/34/25
f 75/45/26 93/33/26 66/33/26 94/45/26
f 73/48/27 75/49/27 94/49/27 95/48/27
f 82/40/28 73/48/28 95/48/28 96/40/28
f 84/30/29 83/50/29 97/50/29 98/30/29
f 83/50/30 87/52/30 99/52/30 97/50/30
f 87/52/31 89/37/31 100/37/31 99/52/31
f 92/39/32 82/40/32 96/40/32 57/39/32
f 93/33/33 84/30/33 98/30/33 66/33/33
f 89/37/34 59/34/34 91/34/34 100/37/34
o Cube.002
v -1.000000 3.705420 -2.267640
v 1.000000 3.705420 -2.267640
v -1.000000 3.427962 -3.439146
v -0.203914 3.244494 -4.213802
v -0.893345 3.336228 -3.826474
v -0.601957 3.269074 -4.110018
v 0.203914 3.244494 -4.213802
v 1.000000 3.427962 -3.439146
v 0.601957 3.269074 -4.110018
v 0.893345 3.336228 -3.826474
v 1.000000 3.533743 -2.226980
v -1.000000 3.533743 -2.226980
v -0.203914 3.072818 -4.173142
v -0.601957 3.097398 -4.069358
v -0.893345 3.164552 -3.785814
v -1.000000 3.256286 -3.398486
v 0.601957 3.097398 -4.069358
v 0.203914 3.072818 -4.173142
v 0.893345 3.164552 -3.785814
v 1.000000 3.256286 -3.398486
vn -0.0000 0.9731 -0.2305
vn -0.0000 -0.9731 0.2305
vn 0.7071 -0.1630 -0.6881
vn -0.7071 -0.1630 -0.6881
vn 1.0000 -0.0000 -0.0000
vn 0.9659 -0.0596 -0.2519
vn -0.9659 -0.0596 -0.2519
vn -0.0000 0.2305 0.9731
vn -1.0000 -0.0000 -0.0000
vn 0.2588 -0.2226 -0.9399
vn -0.2588 -0.2226 -0.9399
vn -0.0000 -0.2305 -0.9731
vt 0.375000 0.250000
vt 0.375000 0.500000
vt 0.525489 0.500000
vt 0.575245 0.486668
vt 0.611668 0.450245
vt 0.625000 0.400489
vt 0.625000 0.349511
vt 0.611668 0.299755
vt 0.575245 0.263332
vt 0.525489 0.250000
s 0
f 101/63/35 102/64/35 108/65/35 110/66/35 109/67/35 107/68/35 104/69/35 106/70/35 105/71/35 103/72/35
f 112/63/36 116/72/36 115/71/36 114/70/36 113/69/36 118/68/36 117/67/36 119/66/36 120/65/36 111/64/36
f 109/67/37 110/66/37 119/66/37 117/67/37
f 105/71/38 106/70/38 114/70/38 115/71/38
f 108/65/39 102/64/39 111/64/39 120/65/39
f 110/66/40 108/65/40 120/65/40 119/66/40
f 103/72/41 105/71/41 115/71/41 116/72/41
f 102/64/42 101/63/42 112/63/42 111/64/42
f 101/63/43 103/72/43 116/72/43 112/63/43
f 107/68/44 109/67/44 117/67/44 118/68/44
f 106/70/45 104/69/45 113/69/45 114/70/45
f 104/69/46 107/68/46 118/68/46 113/69/46
