# Blender 4.4.3
# www.blender.org
mtllib post offfice.mtl
o Cube
v 1.986366 1.780102 -3.536484
v 1.986366 -0.549919 -3.536484
v 1.986366 1.780102 3.645387
v 1.986366 -0.549919 3.645387
v -1.096320 1.780102 -3.536484
v -1.096320 -0.549919 -3.536484
v -1.096320 1.780102 3.645387
v -1.096320 -0.549919 3.645387
vn -0.0000 1.0000 -0.0000
vn -0.0000 -0.0000 1.0000
vn -1.0000 -0.0000 -0.0000
vn -0.0000 -1.0000 -0.0000
vn 1.0000 -0.0000 -0.0000
vn -0.0000 -0.0000 -1.0000
vt 0.625000 0.500000
vt 0.875000 0.500000
vt 0.875000 0.750000
vt 0.625000 0.750000
vt 0.375000 0.750000
vt 0.625000 1.000000
vt 0.375000 1.000000
vt 0.375000 0.000000
vt 0.625000 0.000000
vt 0.625000 0.250000
vt 0.375000 0.250000
vt 0.125000 0.500000
vt 0.375000 0.500000
vt 0.125000 0.750000
s 0
usemtl Material
f 1/1/1 5/2/1 7/3/1 3/4/1
f 4/5/2 3/4/2 7/6/2 8/7/2
f 8/8/3 7/9/3 5/10/3 6/11/3
f 6/12/4 2/13/4 4/5/4 8/14/4
f 2/13/5 1/1/5 3/4/5 4/5/5
f 6/11/6 5/10/6 1/1/6 2/13/6
o Cube.001
v -1.786360 1.775126 4.004156
v -1.797692 1.991365 4.004156
v -1.786360 1.775126 -4.004156
v -1.797692 1.991365 -4.004156
v 2.340585 1.732600 4.004156
v 2.302199 2.465041 4.004156
v 2.340585 1.732600 -4.004156
v 2.302199 2.465041 -4.004156
vn -0.9986 -0.0523 -0.0000
vn -0.0000 -0.0000 -1.0000
vn 0.9986 0.0523 -0.0000
vn -0.0000 -0.0000 1.0000
vn -0.0103 -0.9999 -0.0000
vn -0.1148 0.9934 -0.0000
vt 0.375000 0.000000
vt 0.625000 0.000000
vt 0.625000 0.250000
vt 0.375000 0.250000
vt 0.625000 0.500000
vt 0.375000 0.500000
vt 0.625000 0.750000
vt 0.375000 0.750000
vt 0.625000 1.000000
vt 0.375000 1.000000
vt 0.125000 0.500000
vt 0.125000 0.750000
vt 0.875000 0.500000
vt 0.875000 0.750000
s 0
f 9/15/7 10/16/7 12/17/7 11/18/7
f 11/18/8 12/17/8 16/19/8 15/20/8
f 15/20/9 16/19/9 14/21/9 13/22/9
f 13/22/10 14/21/10 10/23/10 9/24/10
f 11/25/11 15/20/11 13/22/11 9/26/11
f 16/19/12 12/27/12 10/28/12 14/21/12
o Cube.002
v -1.224122 -0.517174 0.618313
v -1.224122 1.485892 0.618313
v -1.224122 -0.517174 -0.618313
v -1.224122 1.485892 -0.618313
v -1.072057 -0.517174 0.618313
v -1.072057 1.485892 0.618313
v -1.072057 -0.517174 -0.618313
v -1.072057 1.485892 -0.618313
vn -1.0000 -0.0000 -0.0000
vn -0.0000 -0.0000 -1.0000
vn 1.0000 -0.0000 -0.0000
vn -0.0000 -0.0000 1.0000
vn -0.0000 -1.0000 -0.0000
vn -0.0000 1.0000 -0.0000
vt 0.375000 0.000000
vt 0.625000 0.000000
vt 0.625000 0.250000
vt 0.375000 0.250000
vt 0.625000 0.500000
vt 0.375000 0.500000
vt 0.625000 0.750000
vt 0.375000 0.750000
vt 0.625000 1.000000
vt 0.375000 1.000000
vt 0.125000 0.500000
vt 0.125000 0.750000
vt 0.875000 0.500000
vt 0.875000 0.750000
s 0
f 17/29/13 18/30/13 20/31/13 19/32/13
f 19/32/14 20/31/14 24/33/14 23/34/14
f 23/34/15 24/33/15 22/35/15 21/36/15
f 21/36/16 22/35/16 18/37/16 17/38/16
f 19/39/17 23/34/17 21/36/17 17/40/17
f 24/33/18 20/41/18 18/42/18 22/35/18
o Sphere
v -1.302384 0.562212 0.400651
v -1.302384 0.539009 0.377448
v -1.302384 0.508692 0.364890
v -1.302384 0.492285 0.363274
v -1.302384 0.475878 0.364890
v -1.302384 0.445561 0.377448
v -1.300577 0.574769 0.431283
v -1.298839 0.569984 0.415809
v -1.297238 0.562212 0.401549
v -1.295834 0.551753 0.389049
v -1.294682 0.539009 0.378791
v -1.293826 0.524469 0.371169
v -1.293299 0.508692 0.366475
v -1.293121 0.492285 0.364890
v -1.293299 0.475878 0.366475
v -1.293826 0.460101 0.371169
v -1.294682 0.445561 0.378791
v -1.295834 0.432817 0.389049
v -1.297238 0.422358 0.401549
v -1.298839 0.414586 0.415809
v -1.300577 0.409800 0.431283
v -1.298839 0.574769 0.432216
v -1.295431 0.569984 0.417641
v -1.292289 0.562212 0.404208
v -1.289536 0.551753 0.392433
v -1.287276 0.539009 0.382770
v -1.285597 0.524469 0.375590
v -1.284563 0.508692 0.371169
v -1.284214 0.492285 0.369676
v -1.284563 0.475878 0.371169
v -1.285597 0.460101 0.375590
v -1.287276 0.445561 0.382770
v -1.289536 0.432817 0.392433
v -1.292289 0.422358 0.404208
v -1.295431 0.414586 0.417641
v -1.298839 0.409800 0.432216
v -1.297238 0.574769 0.433733
v -1.292289 0.569984 0.420615
v -1.287728 0.562212 0.408525
v -1.283731 0.551753 0.397929
v -1.280450 0.539009 0.389232
v -1.278013 0.524469 0.382770
v -1.276511 0.508692 0.378791
v -1.276005 0.492285 0.377448
v -1.276511 0.475878 0.378791
v -1.278013 0.460101 0.382770
v -1.280450 0.445561 0.389232
v -1.283731 0.432817 0.397929
v -1.287728 0.422358 0.408525
v -1.292289 0.414586 0.420615
v -1.297238 0.409800 0.433733
v -1.295834 0.574769 0.435773
v -1.289536 0.569984 0.424617
v -1.283731 0.562212 0.414336
v -1.278643 0.551753 0.405324
v -1.274468 0.539009 0.397929
v -1.271365 0.524469 0.392433
v -1.269454 0.508692 0.389049
v -1.268809 0.492285 0.387907
v -1.269454 0.475878 0.389049
v -1.271365 0.460101 0.392433
v -1.274468 0.445561 0.397929
v -1.278643 0.432817 0.405324
v -1.283731 0.422358 0.414336
v -1.289536 0.414586 0.424617
v -1.295834 0.409800 0.435773
v -1.294682 0.574769 0.438259
v -1.287276 0.569984 0.429494
v -1.280450 0.562212 0.421416
v -1.274468 0.551753 0.414336
v -1.269558 0.539009 0.408525
v -1.265910 0.524469 0.404208
v -1.263663 0.508692 0.401549
v -1.262904 0.492285 0.400651
v -1.263663 0.475878 0.401549
v -1.265910 0.460101 0.404208
v -1.269558 0.445561 0.408525
v -1.274468 0.432817 0.414336
v -1.280450 0.422358 0.421416
v -1.287276 0.414586 0.429494
v -1.294682 0.409800 0.438259
v -1.302384 0.576385 0.447375
v -1.293826 0.574769 0.441096
v -1.285597 0.569984 0.435058
v -1.278013 0.562212 0.429494
v -1.271365 0.551753 0.424617
v -1.265910 0.539009 0.420615
v -1.261856 0.524469 0.417641
v -1.259360 0.508692 0.415809
v -1.258517 0.492285 0.415191
v -1.259360 0.475878 0.415809
v -1.261856 0.460101 0.417641
v -1.265910 0.445561 0.420615
v -1.271365 0.432817 0.424617
v -1.278013 0.422358 0.429494
v -1.285597 0.414586 0.435058
v -1.293826 0.409800 0.441096
v -1.293299 0.574769 0.444174
v -1.284563 0.569984 0.441096
v -1.276511 0.562212 0.438259
v -1.269454 0.551753 0.435773
v -1.263663 0.539009 0.433733
v -1.259360 0.524469 0.432216
v -1.256709 0.508692 0.431283
v -1.255815 0.492285 0.430967
v -1.256709 0.475878 0.431283
v -1.259360 0.460101 0.432216
v -1.263663 0.445561 0.433733
v -1.269454 0.432817 0.435773
v -1.276511 0.422358 0.438259
v -1.284563 0.414586 0.441096
v -1.293299 0.409800 0.444174
v -1.293121 0.574769 0.447375
v -1.284214 0.569984 0.447375
v -1.276005 0.562212 0.447375
v -1.268809 0.551753 0.447375
v -1.262904 0.539009 0.447375
v -1.258517 0.524469 0.447375
v -1.255815 0.508692 0.447375
v -1.254902 0.492285 0.447375
v -1.255815 0.475878 0.447375
v -1.258517 0.460101 0.447375
v -1.262904 0.445561 0.447375
v -1.268809 0.432817 0.447375
v -1.276005 0.422358 0.447375
v -1.284214 0.414586 0.447375
v -1.293121 0.409800 0.447375
v -1.293299 0.574769 0.450576
v -1.284563 0.569984 0.453653
v -1.276511 0.562212 0.456490
v -1.269454 0.551753 0.458976
v -1.263663 0.539009 0.461017
v -1.259360 0.524469 0.462533
v -1.256709 0.508692 0.463467
v -1.255815 0.492285 0.463782
v -1.256709 0.475878 0.463467
v -1.259360 0.460101 0.462533
v -1.263663 0.445561 0.461017
v -1.269454 0.432817 0.458976
v -1.276511 0.422358 0.456490
v -1.284563 0.414586 0.453653
v -1.293299 0.409800 0.450576
v -1.293826 0.574769 0.453653
v -1.285597 0.569984 0.459691
v -1.278013 0.562212 0.465255
v -1.271365 0.551753 0.470132
v -1.265910 0.539009 0.474135
v -1.261856 0.524469 0.477109
v -1.259360 0.508692 0.478940
v -1.258517 0.492285 0.479558
v -1.259360 0.475878 0.478940
v -1.261856 0.460101 0.477109
v -1.265910 0.445561 0.474135
v -1.271365 0.432817 0.470132
v -1.278013 0.422358 0.465255
v -1.285597 0.414586 0.459691
v -1.293826 0.409800 0.453653
v -1.294682 0.574769 0.456490
v -1.287276 0.569984 0.465255
v -1.280450 0.562212 0.473333
v -1.274468 0.551753 0.480413
v -1.269558 0.539009 0.486224
v -1.265910 0.524469 0.490542
v -1.263663 0.508692 0.493201
v -1.262904 0.492285 0.494098
v -1.263663 0.475878 0.493201
v -1.265910 0.460101 0.490542
v -1.269558 0.445561 0.486224
v -1.274468 0.432817 0.480413
v -1.280450 0.422358 0.473333
v -1.287276 0.414586 0.465255
v -1.294682 0.409800 0.456490
v -1.295834 0.574769 0.458976
v -1.289536 0.569984 0.470132
v -1.283731 0.562212 0.480413
v -1.278643 0.551753 0.489425
v -1.274468 0.539009 0.496820
v -1.271365 0.524469 0.502316
v -1.269454 0.508692 0.505700
v -1.268809 0.492285 0.506843
v -1.269454 0.475878 0.505700
v -1.271365 0.460101 0.502316
v -1.274468 0.445561 0.496820
v -1.278643 0.432817 0.489425
v -1.283731 0.422358 0.480413
v -1.289536 0.414586 0.470132
v -1.295834 0.409800 0.458976
v -1.297238 0.574769 0.461017
v -1.292289 0.569984 0.474135
v -1.287728 0.562212 0.486224
v -1.283731 0.551753 0.496820
v -1.280450 0.539009 0.505517
v -1.278013 0.524469 0.511979
v -1.276511 0.508692 0.515958
v -1.276005 0.492285 0.517302
v -1.276511 0.475878 0.515958
v -1.278013 0.460101 0.511979
v -1.280450 0.445561 0.505517
v -1.283731 0.432817 0.496820
v -1.287728 0.422358 0.486224
v -1.292289 0.414586 0.474135
v -1.297238 0.409800 0.461017
v -1.298839 0.574769 0.462533
v -1.295431 0.569984 0.477109
v -1.292289 0.562212 0.490542
v -1.289536 0.551753 0.502316
v -1.287276 0.539009 0.511979
v -1.285597 0.524469 0.519159
v -1.284563 0.508692 0.523580
v -1.284214 0.492285 0.525073
v -1.284563 0.475878 0.523580
v -1.285597 0.460101 0.519159
v -1.287276 0.445561 0.511979
v -1.289536 0.432817 0.502316
v -1.292289 0.422358 0.490542
v -1.295431 0.414586 0.477109
v -1.298839 0.409800 0.462533
v -1.300577 0.574769 0.463467
v -1.298839 0.569984 0.478940
v -1.297238 0.562212 0.493201
v -1.295834 0.551753 0.505700
v -1.294682 0.539009 0.515958
v -1.293826 0.524469 0.523580
v -1.293299 0.508692 0.528274
v -1.293121 0.492285 0.529859
v -1.293299 0.475878 0.528274
v -1.293826 0.460101 0.523580
v -1.294682 0.445561 0.515958
v -1.295834 0.432817 0.505700
v -1.297238 0.422358 0.493201
v -1.298839 0.414586 0.478940
v -1.300577 0.409800 0.463467
v -1.302384 0.574769 0.463782
v -1.302384 0.569984 0.479558
v -1.302384 0.562212 0.494098
v -1.302384 0.551753 0.506843
v -1.302384 0.539009 0.517302
v -1.302384 0.524469 0.525073
v -1.302384 0.508692 0.529859
v -1.302384 0.492285 0.531475
v -1.302384 0.475878 0.529859
v -1.302384 0.460101 0.525073
v -1.302384 0.445561 0.517302
v -1.302384 0.432817 0.506843
v -1.302384 0.422358 0.494098
v -1.302384 0.414586 0.479558
v -1.302384 0.409800 0.463782
v -1.304191 0.574769 0.463467
v -1.305929 0.569984 0.478940
v -1.307530 0.562212 0.493201
v -1.308934 0.551753 0.505700
v -1.310086 0.539009 0.515958
v -1.310942 0.524469 0.523580
v -1.311469 0.508692 0.528274
v -1.311647 0.492285 0.529859
v -1.311469 0.475878 0.528274
v -1.310942 0.460101 0.523580
v -1.310086 0.445561 0.515958
v -1.308934 0.432817 0.505700
v -1.307530 0.422358 0.493201
v -1.305929 0.414586 0.478940
v -1.304191 0.409800 0.463467
v -1.305929 0.574769 0.462533
v -1.309337 0.569984 0.477109
v -1.312479 0.562212 0.490542
v -1.315233 0.551753 0.502316
v -1.317492 0.539009 0.511979
v -1.319171 0.524469 0.519159
v -1.320205 0.508692 0.523580
v -1.320554 0.492285 0.525073
v -1.320205 0.475878 0.523580
v -1.319171 0.460101 0.519159
v -1.317492 0.445561 0.511979
v -1.315233 0.432817 0.502316
v -1.312479 0.422358 0.490542
v -1.309337 0.414586 0.477109
v -1.305929 0.409800 0.462533
v -1.307530 0.574769 0.461017
v -1.312479 0.569984 0.474135
v -1.317040 0.562212 0.486224
v -1.321037 0.551753 0.496820
v -1.324318 0.539009 0.505517
v -1.326755 0.524469 0.511979
v -1.328257 0.508692 0.515958
v -1.328763 0.492285 0.517302
v -1.328257 0.475878 0.515958
v -1.326755 0.460101 0.511979
v -1.324318 0.445561 0.505517
v -1.321037 0.432817 0.496820
v -1.317040 0.422358 0.486224
v -1.312479 0.414586 0.474135
v -1.307530 0.409800 0.461017
v -1.308934 0.574769 0.458976
v -1.315233 0.569984 0.470132
v -1.321037 0.562212 0.480413
v -1.326125 0.551753 0.489425
v -1.330300 0.539009 0.496820
v -1.333403 0.524469 0.502316
v -1.335314 0.508692 0.505700
v -1.335959 0.492285 0.506843
v -1.335314 0.475878 0.505700
v -1.333403 0.460101 0.502316
v -1.330300 0.445561 0.496820
v -1.326125 0.432817 0.489425
v -1.321037 0.422358 0.480413
v -1.315233 0.414586 0.470132
v -1.308934 0.409800 0.458976
v -1.302384 0.408184 0.447375
v -1.310086 0.574769 0.456490
v -1.317492 0.569984 0.465255
v -1.324318 0.562212 0.473333
v -1.330300 0.551753 0.480413
v -1.335210 0.539009 0.486224
v -1.338858 0.524469 0.490542
v -1.341105 0.508692 0.493201
v -1.341864 0.492285 0.494098
v -1.341105 0.475878 0.493201
v -1.338858 0.460101 0.490542
v -1.335210 0.445561 0.486224
v -1.330300 0.432817 0.480413
v -1.324318 0.422358 0.473333
v -1.317492 0.414586 0.465255
v -1.310086 0.409800 0.456490
v -1.310942 0.574769 0.453653
v -1.319171 0.569984 0.459691
v -1.326755 0.562212 0.465255
v -1.333403 0.551753 0.470132
v -1.338858 0.539009 0.474135
v -1.342912 0.524469 0.477109
v -1.345408 0.508692 0.478940
v -1.346251 0.492285 0.479558
v -1.345408 0.475878 0.478940
v -1.342912 0.460101 0.477109
v -1.338858 0.445561 0.474135
v -1.333403 0.432817 0.470132
v -1.326755 0.422358 0.465255
v -1.319171 0.414586 0.459691
v -1.310942 0.409800 0.453653
v -1.311469 0.574769 0.450576
v -1.320205 0.569984 0.453653
v -1.328257 0.562212 0.456490
v -1.335314 0.551753 0.458976
v -1.341105 0.539009 0.461017
v -1.345408 0.524469 0.462533
v -1.348059 0.508692 0.463467
v -1.348953 0.492285 0.463782
v -1.348059 0.475878 0.463467
v -1.345408 0.460101 0.462533
v -1.341105 0.445561 0.461017
v -1.335314 0.432817 0.458976
v -1.328257 0.422358 0.456490
v -1.320205 0.414586 0.453653
v -1.311469 0.409800 0.450576
v -1.311647 0.574769 0.447375
v -1.320554 0.569984 0.447375
v -1.328763 0.562212 0.447375
v -1.335959 0.551753 0.447375
v -1.341864 0.539009 0.447375
v -1.346251 0.524469 0.447375
v -1.348953 0.508692 0.447375
v -1.349866 0.492285 0.447375
v -1.348953 0.475878 0.447375
v -1.346251 0.460101 0.447375
v -1.341864 0.445561 0.447375
v -1.335959 0.432817 0.447375
v -1.328763 0.422358 0.447375
v -1.320554 0.414586 0.447375
v -1.311647 0.409800 0.447375
v -1.311469 0.574769 0.444174
v -1.320205 0.569984 0.441096
v -1.328257 0.562212 0.438259
v -1.335314 0.551753 0.435773
v -1.341105 0.539009 0.433733
v -1.345408 0.524469 0.432216
v -1.348059 0.508692 0.431283
v -1.348953 0.492285 0.430967
v -1.348059 0.475878 0.431283
v -1.345408 0.460101 0.432216
v -1.341105 0.445561 0.433733
v -1.335314 0.432817 0.435773
v -1.328257 0.422358 0.438259
v -1.320205 0.414586 0.441096
v -1.311469 0.409800 0.444174
v -1.310942 0.574769 0.441096
v -1.319171 0.569984 0.435058
v -1.326755 0.562212 0.429494
v -1.333403 0.551753 0.424617
v -1.338858 0.539009 0.420615
v -1.342912 0.524469 0.417641
v -1.345408 0.508692 0.415809
v -1.346251 0.492285 0.415191
v -1.345408 0.475878 0.415809
v -1.342912 0.460101 0.417641
v -1.338858 0.445561 0.420615
v -1.333403 0.432817 0.424617
v -1.326755 0.422358 0.429494
v -1.319171 0.414586 0.435058
v -1.310942 0.409800 0.441096
v -1.310086 0.574769 0.438259
v -1.317492 0.569984 0.429494
v -1.324318 0.562212 0.421416
v -1.330300 0.551753 0.414336
v -1.335210 0.539009 0.408525
v -1.338858 0.524469 0.404208
v -1.341105 0.508692 0.401549
v -1.341864 0.492285 0.400651
v -1.341105 0.475878 0.401549
v -1.338858 0.460101 0.404208
v -1.335210 0.445561 0.408525
v -1.330300 0.432817 0.414336
v -1.324318 0.422358 0.421416
v -1.317492 0.414586 0.429494
v -1.310086 0.409800 0.438259
v -1.308934 0.574769 0.435773
v -1.315233 0.569984 0.424617
v -1.321037 0.562212 0.414336
v -1.326125 0.551753 0.405324
v -1.330300 0.539009 0.397929
v -1.333403 0.524469 0.392433
v -1.335314 0.508692 0.389049
v -1.335959 0.492285 0.387907
v -1.335314 0.475878 0.389049
v -1.333403 0.460101 0.392433
v -1.330300 0.445561 0.397929
v -1.326125 0.432817 0.405324
v -1.321037 0.422358 0.414336
v -1.315233 0.414586 0.424617
v -1.308934 0.409800 0.435773
v -1.307530 0.574769 0.433733
v -1.312479 0.569984 0.420615
v -1.317040 0.562212 0.408525
v -1.321037 0.551753 0.397929
v -1.324318 0.539009 0.389232
v -1.326755 0.524469 0.382771
v -1.328256 0.508692 0.378791
v -1.328763 0.492285 0.377448
v -1.328256 0.475878 0.378791
v -1.326755 0.460101 0.382771
v -1.324318 0.445561 0.389232
v -1.321037 0.432817 0.397929
v -1.317040 0.422358 0.408525
v -1.312479 0.414586 0.420615
v -1.307530 0.409800 0.433733
v -1.305929 0.574769 0.432216
v -1.309337 0.569984 0.417641
v -1.312479 0.562212 0.404208
v -1.315233 0.551753 0.392433
v -1.317492 0.539009 0.382771
v -1.319171 0.524469 0.375590
v -1.320205 0.508692 0.371169
v -1.320554 0.492285 0.369676
v -1.320205 0.475878 0.371169
v -1.319171 0.460101 0.375590
v -1.317492 0.445561 0.382771
v -1.315233 0.432817 0.392433
v -1.312479 0.422358 0.404208
v -1.309337 0.414586 0.417641
v -1.305929 0.409800 0.432216
v -1.304191 0.574769 0.431283
v -1.305929 0.569984 0.415809
v -1.307530 0.562212 0.401549
v -1.308934 0.551753 0.389049
v -1.310086 0.539009 0.378791
v -1.310942 0.524469 0.371169
v -1.311469 0.508692 0.366475
v -1.311647 0.492285 0.364890
v -1.311469 0.475878 0.366475
v -1.310942 0.460101 0.371169
v -1.310086 0.445561 0.378791
v -1.308934 0.432817 0.389049
v -1.307530 0.422358 0.401549
v -1.305929 0.414586 0.415809
v -1.304191 0.409800 0.431283
v -1.302384 0.574769 0.430967
v -1.302384 0.569984 0.415191
v -1.302384 0.551753 0.387907
v -1.302384 0.524469 0.369676
v -1.302384 0.460101 0.369676
v -1.302384 0.432817 0.387907
v -1.302384 0.422358 0.400651
v -1.302384 0.414586 0.415191
v -1.302384 0.409800 0.430967
vn -0.0000 0.8286 -0.5598
vn -0.0000 0.5528 -0.8333
vn -0.0000 0.1939 -0.9810
vn -0.0000 -0.0000 -1.0000
vn -0.0000 -0.1939 -0.9810
vn -0.0000 -0.5528 -0.8333
vn 0.0693 0.9780 -0.1968
vn 0.1332 0.9161 -0.3781
vn 0.1910 0.8183 -0.5422
vn 0.2405 0.6900 -0.6826
vn 0.2802 0.5378 -0.7952
vn 0.3090 0.3680 -0.8770
vn 0.3265 0.1868 -0.9266
vn 0.3323 -0.0000 -0.9432
vn 0.3264 -0.1868 -0.9266
vn 0.3090 -0.3680 -0.8770
vn 0.2802 -0.5378 -0.7952
vn 0.2405 -0.6901 -0.6826
vn 0.1910 -0.8183 -0.5422
vn 0.1332 -0.9161 -0.3781
vn 0.0693 -0.9780 -0.1968
vn 0.1354 0.9735 -0.1845
vn 0.2569 0.9007 -0.3502
vn 0.3621 0.7908 -0.4935
vn 0.4473 0.6543 -0.6097
vn 0.5119 0.5010 -0.6978
vn 0.5567 0.3380 -0.7588
vn 0.5829 0.1700 -0.7945
vn 0.5915 -0.0000 -0.8063
vn 0.5829 -0.1700 -0.7945
vn 0.5567 -0.3380 -0.7588
vn 0.5119 -0.5010 -0.6978
vn 0.4473 -0.6543 -0.6097
vn 0.3621 -0.7908 -0.4935
vn 0.2569 -0.9007 -0.3502
vn 0.1354 -0.9735 -0.1845
vn 0.1952 0.9668 -0.1649
vn 0.3641 0.8791 -0.3076
vn 0.5014 0.7543 -0.4237
vn 0.6053 0.6099 -0.5115
vn 0.6791 0.4578 -0.5738
vn 0.7276 0.3043 -0.6148
vn 0.7550 0.1517 -0.6379
vn 0.7638 -0.0000 -0.6454
vn 0.7550 -0.1517 -0.6379
vn 0.7276 -0.3043 -0.6148
vn 0.6791 -0.4578 -0.5738
vn 0.6053 -0.6099 -0.5115
vn 0.5014 -0.7543 -0.4237
vn 0.3641 -0.8791 -0.3076
vn 0.1952 -0.9668 -0.1649
vn 0.2464 0.9591 -0.1391
vn 0.4509 0.8555 -0.2546
vn 0.6068 0.7172 -0.3426
vn 0.7170 0.5676 -0.4048
vn 0.7908 0.4188 -0.4464
vn 0.8372 0.2751 -0.4727
vn 0.8627 0.1362 -0.4871
vn 0.8708 -0.0000 -0.4916
vn 0.8627 -0.1362 -0.4871
vn 0.8372 -0.2751 -0.4727
vn 0.7908 -0.4188 -0.4464
vn 0.7170 -0.5676 -0.4048
vn 0.6068 -0.7172 -0.3426
vn 0.4509 -0.8555 -0.2546
vn 0.2464 -0.9591 -0.1391
vn 0.2875 0.9516 -0.1085
vn 0.5167 0.8337 -0.1949
vn 0.6816 0.6851 -0.2571
vn 0.7917 0.5330 -0.2987
vn 0.8622 0.3883 -0.3253
vn 0.9052 0.2529 -0.3415
vn 0.9283 0.1246 -0.3502
vn 0.9356 -0.0000 -0.3530
vn 0.9283 -0.1246 -0.3502
vn 0.9052 -0.2529 -0.3415
vn 0.8622 -0.3883 -0.3253
vn 0.7917 -0.5330 -0.2987
vn 0.6816 -0.6851 -0.2571
vn 0.5167 -0.8337 -0.1949
vn 0.2875 -0.9516 -0.1085
vn -0.0000 1.0000 -0.0000
vn 0.3174 0.9454 -0.0742
vn 0.5622 0.8165 -0.1315
vn 0.7307 0.6610 -0.1709
vn 0.8387 0.5081 -0.1961
vn 0.9057 0.3671 -0.2118
vn 0.9458 0.2378 -0.2212
vn 0.9671 0.1168 -0.2262
vn 0.9737 -0.0000 -0.2277
vn 0.9671 -0.1168 -0.2262
vn 0.9458 -0.2378 -0.2212
vn 0.9057 -0.3671 -0.2118
vn 0.8387 -0.5081 -0.1961
vn 0.7307 -0.6610 -0.1709
vn 0.5622 -0.8165 -0.1315
vn 0.3174 -0.9454 -0.0742
vn 0.3355 0.9413 -0.0377
vn 0.5889 0.8055 -0.0661
vn 0.7584 0.6462 -0.0852
vn 0.8644 0.4933 -0.0971
vn 0.9291 0.3548 -0.1043
vn 0.9673 0.2291 -0.1086
vn 0.9875 0.1124 -0.1109
vn 0.9938 -0.0000 -0.1116
vn 0.9875 -0.1124 -0.1109
vn 0.9673 -0.2291 -0.1086
vn 0.9291 -0.3548 -0.1043
vn 0.8644 -0.4933 -0.0971
vn 0.7584 -0.6462 -0.0852
vn 0.5889 -0.8055 -0.0661
vn 0.3355 -0.9413 -0.0377
vn 0.3415 0.9399 -0.0000
vn 0.5976 0.8018 -0.0000
vn 0.7673 0.6413 -0.0000
vn 0.8726 0.4884 -0.0000
vn 0.9365 0.3507 -0.0000
vn 0.9741 0.2263 -0.0000
vn 0.9938 0.1109 -0.0000
vn 1.0000 -0.0000 -0.0000
vn 0.9938 -0.1109 -0.0000
vn 0.9741 -0.2263 -0.0000
vn 0.9365 -0.3507 -0.0000
vn 0.8726 -0.4884 -0.0000
vn 0.7673 -0.6413 -0.0000
vn 0.5976 -0.8018 -0.0000
vn 0.3415 -0.9399 -0.0000
vn 0.3355 0.9413 0.0377
vn 0.5889 0.8055 0.0661
vn 0.7584 0.6462 0.0852
vn 0.8644 0.4933 0.0971
vn 0.9291 0.3548 0.1043
vn 0.9673 0.2291 0.1086
vn 0.9875 0.1124 0.1109
vn 0.9938 -0.0000 0.1116
vn 0.9875 -0.1124 0.1109
vn 0.9673 -0.2291 0.1086
vn 0.9291 -0.3548 0.1043
vn 0.8644 -0.4933 0.0971
vn 0.7584 -0.6462 0.0852
vn 0.5889 -0.8055 0.0661
vn 0.3355 -0.9413 0.0377
vn 0.3174 0.9454 0.0742
vn 0.5622 0.8165 0.1315
vn 0.7307 0.6610 0.1709
vn 0.8387 0.5081 0.1961
vn 0.9057 0.3671 0.2118
vn 0.9458 0.2378 0.2212
vn 0.9671 0.1168 0.2262
vn 0.9737 -0.0000 0.2277
vn 0.9671 -0.1168 0.2262
vn 0.9458 -0.2378 0.2212
vn 0.9057 -0.3671 0.2118
vn 0.8387 -0.5081 0.1961
vn 0.7307 -0.6610 0.1709
vn 0.5622 -0.8165 0.1315
vn 0.3174 -0.9454 0.0742
vn 0.2875 0.9516 0.1085
vn 0.5167 0.8337 0.1949
vn 0.6816 0.6851 0.2571
vn 0.7917 0.5330 0.2987
vn 0.8622 0.3883 0.3253
vn 0.9052 0.2529 0.3415
vn 0.9283 0.1246 0.3502
vn 0.9356 -0.0000 0.3530
vn 0.9283 -0.1246 0.3502
vn 0.9052 -0.2529 0.3415
vn 0.8622 -0.3883 0.3253
vn 0.7917 -0.5330 0.2987
vn 0.6816 -0.6851 0.2571
vn 0.5167 -0.8337 0.1949
vn 0.2875 -0.9516 0.1085
vn 0.2464 0.9591 0.1391
vn 0.4509 0.8555 0.2546
vn 0.6068 0.7172 0.3426
vn 0.7170 0.5676 0.4048
vn 0.7908 0.4188 0.4464
vn 0.8372 0.2751 0.4727
vn 0.8627 0.1362 0.4871
vn 0.8708 -0.0000 0.4916
vn 0.8627 -0.1362 0.4871
vn 0.8372 -0.2751 0.4727
vn 0.7908 -0.4188 0.4464
vn 0.7170 -0.5676 0.4048
vn 0.6068 -0.7172 0.3426
vn 0.4509 -0.8555 0.2546
vn 0.2464 -0.9591 0.1391
vn 0.1952 0.9668 0.1649
vn 0.3641 0.8791 0.3076
vn 0.5014 0.7543 0.4237
vn 0.6053 0.6099 0.5115
vn 0.6791 0.4578 0.5738
vn 0.7276 0.3043 0.6148
vn 0.7550 0.1517 0.6379
vn 0.7638 -0.0000 0.6454
vn 0.7550 -0.1517 0.6379
vn 0.7276 -0.3043 0.6148
vn 0.6791 -0.4578 0.5738
vn 0.6053 -0.6099 0.5115
vn 0.5014 -0.7543 0.4237
vn 0.3641 -0.8791 0.3076
vn 0.1952 -0.9668 0.1649
vn 0.1354 0.9735 0.1845
vn 0.2569 0.9007 0.3502
vn 0.3621 0.7908 0.4935
vn 0.4473 0.6543 0.6097
vn 0.5119 0.5010 0.6978
vn 0.5567 0.3380 0.7588
vn 0.5829 0.1700 0.7945
vn 0.5915 -0.0000 0.8063
vn 0.5829 -0.1700 0.7945
vn 0.5567 -0.3380 0.7588
vn 0.5119 -0.5010 0.6978
vn 0.4473 -0.6543 0.6097
vn 0.3621 -0.7908 0.4935
vn 0.2569 -0.9007 0.3502
vn 0.1354 -0.9735 0.1845
vn 0.0693 0.9780 0.1968
vn 0.1332 0.9161 0.3781
vn 0.1910 0.8183 0.5422
vn 0.2405 0.6900 0.6826
vn 0.2802 0.5378 0.7952
vn 0.3090 0.3680 0.8770
vn 0.3264 0.1868 0.9266
vn 0.3323 -0.0000 0.9432
vn 0.3264 -0.1868 0.9266
vn 0.3090 -0.3680 0.8770
vn 0.2802 -0.5378 0.7952
vn 0.2405 -0.6900 0.6826
vn 0.1910 -0.8183 0.5422
vn 0.1332 -0.9161 0.3781
vn 0.0693 -0.9780 0.1968
vn -0.0000 0.9796 0.2010
vn -0.0000 0.9217 0.3879
vn -0.0000 0.8286 0.5598
vn -0.0000 0.7041 0.7101
vn -0.0000 0.5528 0.8333
vn -0.0000 0.3805 0.9248
vn -0.0000 0.1939 0.9810
vn -0.0000 -0.0000 1.0000
vn -0.0000 -0.1939 0.9810
vn -0.0000 -0.3805 0.9248
vn -0.0000 -0.5528 0.8333
vn -0.0000 -0.7041 0.7101
vn -0.0000 -0.8286 0.5598
vn -0.0000 -0.9217 0.3879
vn -0.0000 -0.9796 0.2010
vn -0.0693 0.9780 0.1968
vn -0.1332 0.9161 0.3781
vn -0.1910 0.8183 0.5422
vn -0.2405 0.6900 0.6826
vn -0.2802 0.5378 0.7952
vn -0.3090 0.3680 0.8770
vn -0.3265 0.1868 0.9266
vn -0.3323 -0.0000 0.9432
vn -0.3265 -0.1868 0.9266
vn -0.3090 -0.3680 0.8770
vn -0.2802 -0.5378 0.7952
vn -0.2405 -0.6900 0.6826
vn -0.1910 -0.8183 0.5422
vn -0.1332 -0.9161 0.3781
vn -0.0693 -0.9780 0.1968
vn -0.1354 0.9735 0.1845
vn -0.2569 0.9007 0.3502
vn -0.3621 0.7908 0.4935
vn -0.4473 0.6543 0.6097
vn -0.5119 0.5010 0.6978
vn -0.5567 0.3380 0.7588
vn -0.5829 0.1700 0.7945
vn -0.5915 -0.0000 0.8063
vn -0.5829 -0.1700 0.7945
vn -0.5567 -0.3380 0.7588
vn -0.5119 -0.5010 0.6978
vn -0.4473 -0.6543 0.6097
vn -0.3621 -0.7908 0.4935
vn -0.2569 -0.9007 0.3502
vn -0.1354 -0.9735 0.1845
vn -0.1952 0.9668 0.1649
vn -0.3641 0.8791 0.3076
vn -0.5014 0.7543 0.4237
vn -0.6053 0.6099 0.5115
vn -0.6791 0.4578 0.5738
vn -0.7276 0.3043 0.6148
vn -0.7550 0.1517 0.6379
vn -0.7638 -0.0000 0.6454
vn -0.7550 -0.1517 0.6379
vn -0.7276 -0.3043 0.6148
vn -0.6791 -0.4578 0.5738
vn -0.6053 -0.6099 0.5115
vn -0.5014 -0.7543 0.4237
vn -0.3641 -0.8791 0.3076
vn -0.1952 -0.9668 0.1649
vn -0.2464 0.9591 0.1391
vn -0.4509 0.8555 0.2546
vn -0.6068 0.7172 0.3426
vn -0.7170 0.5676 0.4048
vn -0.7908 0.4188 0.4464
vn -0.8372 0.2751 0.4727
vn -0.8627 0.1362 0.4871
vn -0.8708 -0.0000 0.4916
vn -0.8627 -0.1362 0.4871
vn -0.8372 -0.2751 0.4727
vn -0.7908 -0.4188 0.4464
vn -0.7170 -0.5676 0.4048
vn -0.6068 -0.7172 0.3426
vn -0.4509 -0.8555 0.2546
vn -0.2464 -0.9591 0.1391
vn -0.0000 -1.0000 -0.0000
vn -0.2875 0.9516 0.1085
vn -0.5167 0.8337 0.1949
vn -0.6816 0.6851 0.2571
vn -0.7917 0.5330 0.2987
vn -0.8622 0.3883 0.3253
vn -0.9052 0.2529 0.3415
vn -0.9283 0.1246 0.3502
vn -0.9356 -0.0000 0.3530
vn -0.9283 -0.1246 0.3502
vn -0.9052 -0.2529 0.3415
vn -0.8622 -0.3883 0.3253
vn -0.7917 -0.5330 0.2987
vn -0.6816 -0.6851 0.2571
vn -0.5167 -0.8337 0.1949
vn -0.2875 -0.9516 0.1085
vn -0.3174 0.9454 0.0742
vn -0.5622 0.8165 0.1315
vn -0.7307 0.6610 0.1709
vn -0.8387 0.5081 0.1961
vn -0.9057 0.3671 0.2118
vn -0.9458 0.2378 0.2212
vn -0.9671 0.1168 0.2262
vn -0.9737 -0.0000 0.2277
vn -0.9671 -0.1168 0.2262
vn -0.9458 -0.2378 0.2212
vn -0.9057 -0.3671 0.2118
vn -0.8387 -0.5081 0.1961
vn -0.7307 -0.6610 0.1709
vn -0.5622 -0.8164 0.1315
vn -0.3174 -0.9454 0.0742
vn -0.3355 0.9413 0.0377
vn -0.5889 0.8055 0.0661
vn -0.7584 0.6462 0.0852
vn -0.8644 0.4933 0.0971
vn -0.9291 0.3548 0.1043
vn -0.9673 0.2291 0.1086
vn -0.9875 0.1124 0.1109
vn -0.9938 -0.0000 0.1116
vn -0.9875 -0.1124 0.1109
vn -0.9673 -0.2291 0.1086
vn -0.9291 -0.3548 0.1043
vn -0.8644 -0.4933 0.0971
vn -0.7584 -0.6462 0.0852
vn -0.5889 -0.8055 0.0661
vn -0.3355 -0.9413 0.0377
vn -0.3415 0.9399 -0.0000
vn -0.5976 0.8018 -0.0000
vn -0.7673 0.6413 -0.0000
vn -0.8726 0.4884 -0.0000
vn -0.9365 0.3507 -0.0000
vn -0.9741 0.2263 -0.0000
vn -0.9938 0.1109 -0.0000
vn -1.0000 -0.0000 -0.0000
vn -0.9938 -0.1109 -0.0000
vn -0.9741 -0.2263 -0.0000
vn -0.9365 -0.3507 -0.0000
vn -0.8726 -0.4884 -0.0000
vn -0.7673 -0.6413 -0.0000
vn -0.5976 -0.8018 -0.0000
vn -0.3415 -0.9399 -0.0000
vn -0.3355 0.9413 -0.0377
vn -0.5889 0.8055 -0.0661
vn -0.7584 0.6462 -0.0852
vn -0.8644 0.4933 -0.0971
vn -0.9291 0.3548 -0.1043
vn -0.9673 0.2291 -0.1086
vn -0.9875 0.1124 -0.1109
vn -0.9938 -0.0000 -0.1116
vn -0.9875 -0.1124 -0.1109
vn -0.9673 -0.2291 -0.1086
vn -0.9291 -0.3548 -0.1043
vn -0.8644 -0.4933 -0.0971
vn -0.7584 -0.6462 -0.0852
vn -0.5889 -0.8055 -0.0661
vn -0.3355 -0.9413 -0.0377
vn -0.3174 0.9454 -0.0742
vn -0.5622 0.8164 -0.1315
vn -0.7307 0.6610 -0.1709
vn -0.8387 0.5081 -0.1961
vn -0.9057 0.3671 -0.2118
vn -0.9458 0.2378 -0.2212
vn -0.9671 0.1168 -0.2262
vn -0.9737 -0.0000 -0.2277
vn -0.9671 -0.1168 -0.2262
vn -0.9458 -0.2378 -0.2212
vn -0.9057 -0.3671 -0.2118
vn -0.8387 -0.5081 -0.1961
vn -0.7307 -0.6610 -0.1709
vn -0.5622 -0.8164 -0.1315
vn -0.3174 -0.9454 -0.0742
vn -0.2875 0.9516 -0.1085
vn -0.5167 0.8337 -0.1949
vn -0.6816 0.6851 -0.2571
vn -0.7917 0.5330 -0.2987
vn -0.8622 0.3883 -0.3253
vn -0.9052 0.2529 -0.3415
vn -0.9283 0.1246 -0.3502
vn -0.9356 -0.0000 -0.3530
vn -0.9283 -0.1246 -0.3502
vn -0.9052 -0.2529 -0.3415
vn -0.8622 -0.3883 -0.3253
vn -0.7917 -0.5330 -0.2987
vn -0.6816 -0.6851 -0.2571
vn -0.5167 -0.8337 -0.1949
vn -0.2875 -0.9516 -0.1085
vn -0.2464 0.9591 -0.1391
vn -0.4509 0.8555 -0.2546
vn -0.6068 0.7172 -0.3426
vn -0.7170 0.5676 -0.4048
vn -0.7908 0.4188 -0.4464
vn -0.8372 0.2751 -0.4727
vn -0.8627 0.1362 -0.4871
vn -0.8708 -0.0000 -0.4916
vn -0.8627 -0.1362 -0.4871
vn -0.8372 -0.2751 -0.4727
vn -0.7908 -0.4188 -0.4464
vn -0.7170 -0.5676 -0.4048
vn -0.6068 -0.7172 -0.3426
vn -0.4509 -0.8555 -0.2546
vn -0.2464 -0.9591 -0.1391
vn -0.1952 0.9668 -0.1649
vn -0.3641 0.8791 -0.3076
vn -0.5014 0.7543 -0.4237
vn -0.6053 0.6099 -0.5115
vn -0.6791 0.4578 -0.5738
vn -0.7276 0.3043 -0.6148
vn -0.7550 0.1517 -0.6379
vn -0.7638 -0.0000 -0.6454
vn -0.7550 -0.1517 -0.6379
vn -0.7276 -0.3043 -0.6148
vn -0.6791 -0.4578 -0.5738
vn -0.6053 -0.6099 -0.5115
vn -0.5014 -0.7543 -0.4237
vn -0.3641 -0.8791 -0.3076
vn -0.1952 -0.9668 -0.1649
vn -0.1354 0.9735 -0.1845
vn -0.2569 0.9007 -0.3502
vn -0.3621 0.7908 -0.4935
vn -0.4473 0.6543 -0.6097
vn -0.5119 0.5010 -0.6978
vn -0.5567 0.3380 -0.7588
vn -0.5829 0.1700 -0.7945
vn -0.5915 -0.0000 -0.8063
vn -0.5829 -0.1700 -0.7945
vn -0.5567 -0.3380 -0.7588
vn -0.5119 -0.5010 -0.6978
vn -0.4473 -0.6543 -0.6097
vn -0.3621 -0.7908 -0.4935
vn -0.2569 -0.9007 -0.3502
vn -0.1354 -0.9735 -0.1845
vn -0.0693 0.9780 -0.1968
vn -0.1332 0.9161 -0.3781
vn -0.1910 0.8183 -0.5422
vn -0.2405 0.6900 -0.6826
vn -0.2802 0.5378 -0.7952
vn -0.3090 0.3680 -0.8770
vn -0.3265 0.1868 -0.9266
vn -0.3323 -0.0000 -0.9432
vn -0.3265 -0.1868 -0.9266
vn -0.3090 -0.3680 -0.8770
vn -0.2802 -0.5378 -0.7952
vn -0.2405 -0.6901 -0.6826
vn -0.1910 -0.8183 -0.5422
vn -0.1332 -0.9161 -0.3781
vn -0.0693 -0.9780 -0.1968
vn -0.0000 0.9796 -0.2010
vn -0.0000 0.9217 -0.3879
vn -0.0000 0.7041 -0.7101
vn -0.0000 0.3805 -0.9248
vn -0.0000 -0.3805 -0.9248
vn -0.0000 -0.7041 -0.7101
vn -0.0000 -0.8286 -0.5598
vn -0.0000 -0.9217 -0.3879
vn -0.0000 -0.9796 -0.2010
vt 0.750000 0.687500
vt 0.750000 0.750000
vt 0.718750 0.750000
vt 0.718750 0.687500
vt 0.750000 0.187500
vt 0.750000 0.250000
vt 0.718750 0.250000
vt 0.718750 0.187500
vt 0.750000 0.625000
vt 0.718750 0.625000
vt 0.750000 0.125000
vt 0.718750 0.125000
vt 0.750000 0.562500
vt 0.718750 0.562500
vt 0.750000 0.062500
vt 0.718750 0.062500
vt 0.750000 0.500000
vt 0.718750 0.500000
vt 0.750000 0.937500
vt 0.734375 1.000000
vt 0.718750 0.937500
vt 0.734375 0.000000
vt 0.750000 0.437500
vt 0.718750 0.437500
vt 0.750000 0.875000
vt 0.718750 0.875000
vt 0.750000 0.375000
vt 0.718750 0.375000
vt 0.750000 0.812500
vt 0.718750 0.812500
vt 0.750000 0.312500
vt 0.718750 0.312500
vt 0.687500 0.812500
vt 0.687500 0.750000
vt 0.687500 0.312500
vt 0.687500 0.250000
vt 0.687500 0.687500
vt 0.687500 0.187500
vt 0.687500 0.625000
vt 0.687500 0.125000
vt 0.687500 0.562500
vt 0.687500 0.062500
vt 0.687500 0.500000
vt 0.703125 1.000000
vt 0.687500 0.937500
vt 0.703125 0.000000
vt 0.687500 0.437500
vt 0.687500 0.875000
vt 0.687500 0.375000
vt 0.656250 0.562500
vt 0.656250 0.500000
vt 0.671875 1.000000
vt 0.656250 0.937500
vt 0.671875 0.000000
vt 0.656250 0.062500
vt 0.656250 0.437500
vt 0.656250 0.875000
vt 0.656250 0.375000
vt 0.656250 0.812500
vt 0.656250 0.312500
vt 0.656250 0.750000
vt 0.656250 0.250000
vt 0.656250 0.687500
vt 0.656250 0.187500
vt 0.656250 0.625000
vt 0.656250 0.125000
vt 0.625000 0.312500
vt 0.625000 0.250000
vt 0.625000 0.750000
vt 0.625000 0.687500
vt 0.625000 0.187500
vt 0.625000 0.625000
vt 0.625000 0.125000
vt 0.625000 0.562500
vt 0.625000 0.062500
vt 0.625000 0.500000
vt 0.640625 1.000000
vt 0.625000 0.937500
vt 0.640625 0.000000
vt 0.625000 0.437500
vt 0.625000 0.875000
vt 0.625000 0.375000
vt 0.625000 0.812500
vt 0.609375 1.000000
vt 0.593750 0.937500
vt 0.609375 0.000000
vt 0.593750 0.062500
vt 0.593750 0.500000
vt 0.593750 0.437500
vt 0.593750 0.875000
vt 0.593750 0.375000
vt 0.593750 0.812500
vt 0.593750 0.312500
vt 0.593750 0.750000
vt 0.593750 0.250000
vt 0.593750 0.687500
vt 0.593750 0.187500
vt 0.593750 0.625000
vt 0.593750 0.125000
vt 0.593750 0.562500
vt 0.562500 0.750000
vt 0.562500 0.687500
vt 0.562500 0.250000
vt 0.562500 0.187500
vt 0.562500 0.625000
vt 0.562500 0.125000
vt 0.562500 0.562500
vt 0.562500 0.062500
vt 0.562500 0.500000
vt 0.578125 1.000000
vt 0.562500 0.937500
vt 0.578125 0.000000
vt 0.562500 0.437500
vt 0.562500 0.875000
vt 0.562500 0.375000
vt 0.562500 0.812500
vt 0.562500 0.312500
vt 0.531250 0.500000
vt 0.531250 0.437500
vt 0.531250 0.937500
vt 0.531250 0.875000
vt 0.531250 0.375000
vt 0.531250 0.812500
vt 0.531250 0.312500
vt 0.531250 0.750000
vt 0.531250 0.250000
vt 0.531250 0.687500
vt 0.531250 0.187500
vt 0.531250 0.625000
vt 0.531250 0.125000
vt 0.531250 0.562500
vt 0.531250 0.062500
vt 0.546875 1.000000
vt 0.546875 0.000000
vt 0.500000 0.250000
vt 0.500000 0.187500
vt 0.500000 0.687500
vt 0.500000 0.625000
vt 0.500000 0.125000
vt 0.500000 0.562500
vt 0.500000 0.062500
vt 0.500000 0.500000
vt 0.515625 1.000000
vt 0.500000 0.937500
vt 0.515625 0.000000
vt 0.500000 0.437500
vt 0.500000 0.875000
vt 0.500000 0.375000
vt 0.500000 0.812500
vt 0.500000 0.312500
vt 0.500000 0.750000
vt 0.468750 0.437500
vt 0.468750 0.375000
vt 0.468750 0.875000
vt 0.468750 0.812500
vt 0.468750 0.312500
vt 0.468750 0.750000
vt 0.468750 0.250000
vt 0.468750 0.687500
vt 0.468750 0.187500
vt 0.468750 0.625000
vt 0.468750 0.125000
vt 0.468750 0.562500
vt 0.468750 0.062500
vt 0.468750 0.500000
vt 0.484375 1.000000
vt 0.468750 0.937500
vt 0.484375 0.000000
vt 0.437500 0.187500
vt 0.437500 0.125000
vt 0.437500 0.625000
vt 0.437500 0.562500
vt 0.437500 0.062500
vt 0.437500 0.500000
vt 0.453125 1.000000
vt 0.437500 0.937500
vt 0.453125 0.000000
vt 0.437500 0.437500
vt 0.437500 0.875000
vt 0.437500 0.375000
vt 0.437500 0.812500
vt 0.437500 0.312500
vt 0.437500 0.750000
vt 0.437500 0.250000
vt 0.437500 0.687500
vt 0.406250 0.875000
vt 0.406250 0.812500
vt 0.406250 0.375000
vt 0.406250 0.312500
vt 0.406250 0.750000
vt 0.406250 0.250000
vt 0.406250 0.687500
vt 0.406250 0.187500
vt 0.406250 0.625000
vt 0.406250 0.125000
vt 0.406250 0.562500
vt 0.406250 0.062500
vt 0.406250 0.500000
vt 0.421875 1.000000
vt 0.406250 0.937500
vt 0.421875 0.000000
vt 0.406250 0.437500
vt 0.375000 0.625000
vt 0.375000 0.562500
vt 0.375000 0.125000
vt 0.375000 0.062500
vt 0.375000 0.500000
vt 0.390625 1.000000
vt 0.375000 0.937500
vt 0.390625 0.000000
vt 0.375000 0.437500
vt 0.375000 0.875000
vt 0.375000 0.375000
vt 0.375000 0.812500
vt 0.375000 0.312500
vt 0.375000 0.750000
vt 0.375000 0.250000
vt 0.375000 0.687500
vt 0.375000 0.187500
vt 0.343750 0.375000
vt 0.343750 0.312500
vt 0.343750 0.812500
vt 0.343750 0.750000
vt 0.343750 0.250000
vt 0.343750 0.687500
vt 0.343750 0.187500
vt 0.343750 0.625000
vt 0.343750 0.125000
vt 0.343750 0.562500
vt 0.343750 0.062500
vt 0.343750 0.500000
vt 0.359375 1.000000
vt 0.343750 0.937500
vt 0.359375 0.000000
vt 0.343750 0.437500
vt 0.343750 0.875000
vt 0.312500 0.125000
vt 0.312500 0.062500
vt 0.312500 0.562500
vt 0.312500 0.500000
vt 0.328125 1.000000
vt 0.312500 0.937500
vt 0.328125 0.000000
vt 0.312500 0.437500
vt 0.312500 0.875000
vt 0.312500 0.375000
vt 0.312500 0.812500
vt 0.312500 0.312500
vt 0.312500 0.750000
vt 0.312500 0.250000
vt 0.312500 0.687500
vt 0.312500 0.187500
vt 0.312500 0.625000
vt 0.281250 0.812500
vt 0.281250 0.750000
vt 0.281250 0.312500
vt 0.281250 0.250000
vt 0.281250 0.687500
vt 0.281250 0.187500
vt 0.281250 0.625000
vt 0.281250 0.125000
vt 0.281250 0.562500
vt 0.281250 0.062500
vt 0.281250 0.500000
vt 0.296875 1.000000
vt 0.281250 0.937500
vt 0.296875 0.000000
vt 0.281250 0.437500
vt 0.281250 0.875000
vt 0.281250 0.375000
vt 0.250000 0.562500
vt 0.250000 0.500000
vt 0.265625 1.000000
vt 0.250000 0.937500
vt 0.265625 0.000000
vt 0.250000 0.062500
vt 0.250000 0.437500
vt 0.250000 0.875000
vt 0.250000 0.375000
vt 0.250000 0.812500
vt 0.250000 0.312500
vt 0.250000 0.750000
vt 0.250000 0.250000
vt 0.250000 0.687500
vt 0.250000 0.187500
vt 0.250000 0.625000
vt 0.250000 0.125000
vt 0.218750 0.312500
vt 0.218750 0.250000
vt 0.218750 0.750000
vt 0.218750 0.687500
vt 0.218750 0.187500
vt 0.218750 0.625000
vt 0.218750 0.125000
vt 0.218750 0.562500
vt 0.218750 0.062500
vt 0.218750 0.500000
vt 0.234375 1.000000
vt 0.218750 0.937500
vt 0.234375 0.000000
vt 0.218750 0.437500
vt 0.218750 0.875000
vt 0.218750 0.375000
vt 0.218750 0.812500
vt 0.203125 0.000000
vt 0.187500 0.062500
vt 0.187500 0.500000
vt 0.187500 0.437500
vt 0.187500 0.937500
vt 0.187500 0.875000
vt 0.187500 0.375000
vt 0.187500 0.812500
vt 0.187500 0.312500
vt 0.187500 0.750000
vt 0.187500 0.250000
vt 0.187500 0.687500
vt 0.187500 0.187500
vt 0.187500 0.625000
vt 0.187500 0.125000
vt 0.187500 0.562500
vt 0.203125 1.000000
vt 0.156250 0.250000
vt 0.156250 0.187500
vt 0.156250 0.687500
vt 0.156250 0.625000
vt 0.156250 0.125000
vt 0.156250 0.562500
vt 0.156250 0.062500
vt 0.156250 0.500000
vt 0.171875 1.000000
vt 0.156250 0.937500
vt 0.171875 0.000000
vt 0.156250 0.437500
vt 0.156250 0.875000
vt 0.156250 0.375000
vt 0.156250 0.812500
vt 0.156250 0.312500
vt 0.156250 0.750000
vt 0.125000 0.937500
vt 0.125000 0.875000
vt 0.125000 0.437500
vt 0.125000 0.375000
vt 0.125000 0.812500
vt 0.125000 0.312500
vt 0.125000 0.750000
vt 0.125000 0.250000
vt 0.125000 0.687500
vt 0.125000 0.187500
vt 0.125000 0.625000
vt 0.125000 0.125000
vt 0.125000 0.562500
vt 0.125000 0.062500
vt 0.125000 0.500000
vt 0.140625 1.000000
vt 0.140625 0.000000
vt 0.093750 0.687500
vt 0.093750 0.625000
vt 0.093750 0.187500
vt 0.093750 0.125000
vt 0.093750 0.562500
vt 0.093750 0.062500
vt 0.093750 0.500000
vt 0.109375 1.000000
vt 0.093750 0.937500
vt 0.109375 0.000000
vt 0.093750 0.437500
vt 0.093750 0.875000
vt 0.093750 0.375000
vt 0.093750 0.812500
vt 0.093750 0.312500
vt 0.093750 0.750000
vt 0.093750 0.250000
vt 0.062500 0.437500
vt 0.062500 0.375000
vt 0.062500 0.875000
vt 0.062500 0.812500
vt 0.062500 0.312500
vt 0.062500 0.750000
vt 0.062500 0.250000
vt 0.062500 0.687500
vt 0.062500 0.187500
vt 0.062500 0.625000
vt 0.062500 0.125000
vt 0.062500 0.562500
vt 0.062500 0.062500
vt 0.062500 0.500000
vt 0.078125 1.000000
vt 0.062500 0.937500
vt 0.078125 0.000000
vt 0.031250 0.187500
vt 0.031250 0.125000
vt 0.031250 0.625000
vt 0.031250 0.562500
vt 0.031250 0.062500
vt 0.031250 0.500000
vt 0.046875 1.000000
vt 0.031250 0.937500
vt 0.046875 0.000000
vt 0.031250 0.437500
vt 0.031250 0.875000
vt 0.031250 0.375000
vt 0.031250 0.812500
vt 0.031250 0.312500
vt 0.031250 0.750000
vt 0.031250 0.250000
vt 0.031250 0.687500
vt 0.000000 0.875000
vt 0.000000 0.812500
vt 0.000000 0.375000
vt 0.000000 0.312500
vt 0.000000 0.750000
vt 0.000000 0.250000
vt 0.000000 0.687500
vt 0.000000 0.187500
vt 0.000000 0.625000
vt 0.000000 0.125000
vt 0.000000 0.562500
vt 0.000000 0.062500
vt 0.000000 0.500000
vt 0.015625 1.000000
vt 0.000000 0.937500
vt 0.015625 0.000000
vt 0.000000 0.437500
vt 1.000000 0.562500
vt 1.000000 0.625000
vt 0.968750 0.625000
vt 0.968750 0.562500
vt 1.000000 0.062500
vt 1.000000 0.125000
vt 0.968750 0.125000
vt 0.968750 0.062500
vt 1.000000 0.500000
vt 0.968750 0.500000
vt 1.000000 0.937500
vt 0.984375 1.000000
vt 0.968750 0.937500
vt 0.984375 0.000000
vt 1.000000 0.437500
vt 0.968750 0.437500
vt 1.000000 0.875000
vt 0.968750 0.875000
vt 1.000000 0.375000
vt 0.968750 0.375000
vt 1.000000 0.812500
vt 0.968750 0.812500
vt 1.000000 0.312500
vt 0.968750 0.312500
vt 1.000000 0.750000
vt 0.968750 0.750000
vt 1.000000 0.250000
vt 0.968750 0.250000
vt 1.000000 0.687500
vt 0.968750 0.687500
vt 1.000000 0.187500
vt 0.968750 0.187500
vt 0.937500 0.375000
vt 0.937500 0.312500
vt 0.937500 0.812500
vt 0.937500 0.750000
vt 0.937500 0.250000
vt 0.937500 0.687500
vt 0.937500 0.187500
vt 0.937500 0.625000
vt 0.937500 0.125000
vt 0.937500 0.562500
vt 0.937500 0.062500
vt 0.937500 0.500000
vt 0.953125 1.000000
vt 0.937500 0.937500
vt 0.953125 0.000000
vt 0.937500 0.437500
vt 0.937500 0.875000
vt 0.906250 0.125000
vt 0.906250 0.062500
vt 0.906250 0.562500
vt 0.906250 0.500000
vt 0.921875 1.000000
vt 0.906250 0.937500
vt 0.921875 0.000000
vt 0.906250 0.437500
vt 0.906250 0.875000
vt 0.906250 0.375000
vt 0.906250 0.812500
vt 0.906250 0.312500
vt 0.906250 0.750000
vt 0.906250 0.250000
vt 0.906250 0.687500
vt 0.906250 0.187500
vt 0.906250 0.625000
vt 0.875000 0.312500
vt 0.875000 0.250000
vt 0.875000 0.750000
vt 0.875000 0.687500
vt 0.875000 0.187500
vt 0.875000 0.625000
vt 0.875000 0.125000
vt 0.875000 0.562500
vt 0.875000 0.062500
vt 0.875000 0.500000
vt 0.890625 1.000000
vt 0.875000 0.937500
vt 0.890625 0.000000
vt 0.875000 0.437500
vt 0.875000 0.875000
vt 0.875000 0.375000
vt 0.875000 0.812500
vt 0.859375 1.000000
vt 0.843750 0.937500
vt 0.859375 0.000000
vt 0.843750 0.062500
vt 0.843750 0.500000
vt 0.843750 0.437500
vt 0.843750 0.875000
vt 0.843750 0.375000
vt 0.843750 0.812500
vt 0.843750 0.312500
vt 0.843750 0.750000
vt 0.843750 0.250000
vt 0.843750 0.687500
vt 0.843750 0.187500
vt 0.843750 0.625000
vt 0.843750 0.125000
vt 0.843750 0.562500
vt 0.812500 0.750000
vt 0.812500 0.687500
vt 0.812500 0.250000
vt 0.812500 0.187500
vt 0.812500 0.625000
vt 0.812500 0.125000
vt 0.812500 0.562500
vt 0.812500 0.062500
vt 0.812500 0.500000
vt 0.828125 1.000000
vt 0.812500 0.937500
vt 0.828125 0.000000
vt 0.812500 0.437500
vt 0.812500 0.875000
vt 0.812500 0.375000
vt 0.812500 0.812500
vt 0.812500 0.312500
vt 0.781250 0.500000
vt 0.781250 0.437500
vt 0.781250 0.937500
vt 0.781250 0.875000
vt 0.781250 0.375000
vt 0.781250 0.812500
vt 0.781250 0.312500
vt 0.781250 0.750000
vt 0.781250 0.250000
vt 0.781250 0.687500
vt 0.781250 0.187500
vt 0.781250 0.625000
vt 0.781250 0.125000
vt 0.781250 0.562500
vt 0.781250 0.062500
vt 0.796875 1.000000
vt 0.796875 0.000000
vt 0.765625 1.000000
vt 0.765625 0.000000
s 1
f 26/43/20 500/44/494 34/45/28 35/46/29
f 504/47/498 503/48/497 42/49/36 43/50/37
f 501/51/495 26/43/20 35/46/29 36/52/30
f 505/53/499 504/47/498 43/50/37 44/54/38
f 27/55/21 501/51/495 36/52/30 37/56/31
f 506/57/500 505/53/499 44/54/38 45/58/39
f 28/59/22 27/55/21 37/56/31 38/60/32
f 498/61/492 106/62/100 31/63/25
f 332/64/326 506/57/500 45/58/39
f 29/65/23 28/59/22 38/60/32 39/66/33
f 499/67/493 498/61/492 31/63/25 32/68/26
f 502/69/496 29/65/23 39/66/33 40/70/34
f 25/71/19 499/67/493 32/68/26 33/72/27
f 30/73/24 502/69/496 40/70/34 41/74/35
f 500/44/494 25/71/19 33/72/27 34/45/28
f 503/48/497 30/73/24 41/74/35 42/49/36
f 34/45/28 33/72/27 48/75/42 49/76/43
f 42/49/36 41/74/35 56/77/50 57/78/51
f 35/46/29 34/45/28 49/76/43 50/79/44
f 43/50/37 42/49/36 57/78/51 58/80/52
f 36/52/30 35/46/29 50/79/44 51/81/45
f 44/54/38 43/50/37 58/80/52 59/82/53
f 37/56/31 36/52/30 51/81/45 52/83/46
f 45/58/39 44/54/38 59/82/53 60/84/54
f 38/60/32 37/56/31 52/83/46 53/85/47
f 31/63/25 106/86/100 46/87/40
f 332/88/326 45/58/39 60/84/54
f 39/66/33 38/60/32 53/85/47 54/89/48
f 32/68/26 31/63/25 46/87/40 47/90/41
f 40/70/34 39/66/33 54/89/48 55/91/49
f 33/72/27 32/68/26 47/90/41 48/75/42
f 41/74/35 40/70/34 55/91/49 56/77/50
f 53/85/47 52/83/46 67/92/61 68/93/62
f 46/87/40 106/94/100 61/95/55
f 332/96/326 60/84/54 75/97/69
f 54/89/48 53/85/47 68/93/62 69/98/63
f 47/90/41 46/87/40 61/95/55 62/99/56
f 55/91/49 54/89/48 69/98/63 70/100/64
f 48/75/42 47/90/41 62/99/56 63/101/57
f 56/77/50 55/91/49 70/100/64 71/102/65
f 49/76/43 48/75/42 63/101/57 64/103/58
f 57/78/51 56/77/50 71/102/65 72/104/66
f 50/79/44 49/76/43 64/103/58 65/105/59
f 58/80/52 57/78/51 72/104/66 73/106/67
f 51/81/45 50/79/44 65/105/59 66/107/60
f 59/82/53 58/80/52 73/106/67 74/108/68
f 52/83/46 51/81/45 66/107/60 67/92/61
f 60/84/54 59/82/53 74/108/68 75/97/69
f 72/104/66 71/102/65 86/109/80 87/110/81
f 65/105/59 64/103/58 79/111/73 80/112/74
f 73/106/67 72/104/66 87/110/81 88/113/82
f 66/107/60 65/105/59 80/112/74 81/114/75
f 74/108/68 73/106/67 88/113/82 89/115/83
f 67/92/61 66/107/60 81/114/75 82/116/76
f 75/97/69 74/108/68 89/115/83 90/117/84
f 68/93/62 67/92/61 82/116/76 83/118/77
f 61/95/55 106/119/100 76/120/70
f 332/121/326 75/97/69 90/117/84
f 69/98/63 68/93/62 83/118/77 84/122/78
f 62/99/56 61/95/55 76/120/70 77/123/71
f 70/100/64 69/98/63 84/122/78 85/124/79
f 63/101/57 62/99/56 77/123/71 78/125/72
f 71/102/65 70/100/64 85/124/79 86/109/80
f 64/103/58 63/101/57 78/125/72 79/111/73
f 76/120/70 106/126/100 91/127/85
f 332/128/326 90/117/84 105/129/99
f 84/122/78 83/118/77 98/130/92 99/131/93
f 77/123/71 76/120/70 91/127/85 92/132/86
f 85/124/79 84/122/78 99/131/93 100/133/94
f 78/125/72 77/123/71 92/132/86 93/134/87
f 86/109/80 85/124/79 100/133/94 101/135/95
f 79/111/73 78/125/72 93/134/87 94/136/88
f 87/110/81 86/109/80 101/135/95 102/137/96
f 80/112/74 79/111/73 94/136/88 95/138/89
f 88/113/82 87/110/81 102/137/96 103/139/97
f 81/114/75 80/112/74 95/138/89 96/140/90
f 89/115/83 88/113/82 103/139/97 104/141/98
f 82/116/76 81/114/75 96/140/90 97/142/91
f 90/117/84 89/115/83 104/141/98 105/129/99
f 83/118/77 82/116/76 97/142/91 98/130/92
f 95/138/89 94/136/88 110/143/104 111/144/105
f 103/139/97 102/137/96 118/145/112 119/146/113
f 96/140/90 95/138/89 111/144/105 112/147/106
f 104/141/98 103/139/97 119/146/113 120/148/114
f 97/142/91 96/140/90 112/147/106 113/149/107
f 105/129/99 104/141/98 120/148/114 121/150/115
f 98/130/92 97/142/91 113/149/107 114/151/108
f 91/127/85 106/152/100 107/153/101
f 332/154/326 105/129/99 121/150/115
f 99/131/93 98/130/92 114/151/108 115/155/109
f 92/132/86 91/127/85 107/153/101 108/156/102
f 100/133/94 99/131/93 115/155/109 116/157/110
f 93/134/87 92/132/86 108/156/102 109/158/103
f 101/135/95 100/133/94 116/157/110 117/159/111
f 94/136/88 93/134/87 109/158/103 110/143/104
f 102/137/96 101/135/95 117/159/111 118/145/112
f 115/155/109 114/151/108 129/160/123 130/161/124
f 108/156/102 107/153/101 122/162/116 123/163/117
f 116/157/110 115/155/109 130/161/124 131/164/125
f 109/158/103 108/156/102 123/163/117 124/165/118
f 117/159/111 116/157/110 131/164/125 132/166/126
f 110/143/104 109/158/103 124/165/118 125/167/119
f 118/145/112 117/159/111 132/166/126 133/168/127
f 111/144/105 110/143/104 125/167/119 126/169/120
f 119/146/113 118/145/112 133/168/127 134/170/128
f 112/147/106 111/144/105 126/169/120 127/171/121
f 120/148/114 119/146/113 134/170/128 135/172/129
f 113/149/107 112/147/106 127/171/121 128/173/122
f 121/150/115 120/148/114 135/172/129 136/174/130
f 114/151/108 113/149/107 128/173/122 129/160/123
f 107/153/101 106/175/100 122/162/116
f 332/176/326 121/150/115 136/174/130
f 134/170/128 133/168/127 148/177/142 149/178/143
f 127/171/121 126/169/120 141/179/135 142/180/136
f 135/172/129 134/170/128 149/178/143 150/181/144
f 128/173/122 127/171/121 142/180/136 143/182/137
f 136/174/130 135/172/129 150/181/144 151/183/145
f 129/160/123 128/173/122 143/182/137 144/184/138
f 122/162/116 106/185/100 137/186/131
f 332/187/326 136/174/130 151/183/145
f 130/161/124 129/160/123 144/184/138 145/188/139
f 123/163/117 122/162/116 137/186/131 138/189/132
f 131/164/125 130/161/124 145/188/139 146/190/140
f 124/165/118 123/163/117 138/189/132 139/191/133
f 132/166/126 131/164/125 146/190/140 147/192/141
f 125/167/119 124/165/118 139/191/133 140/193/134
f 133/168/127 132/166/126 147/192/141 148/177/142
f 126/169/120 125/167/119 140/193/134 141/179/135
f 146/190/140 145/188/139 160/194/154 161/195/155
f 139/191/133 138/189/132 153/196/147 154/197/148
f 147/192/141 146/190/140 161/195/155 162/198/156
f 140/193/134 139/191/133 154/197/148 155/199/149
f 148/177/142 147/192/141 162/198/156 163/200/157
f 141/179/135 140/193/134 155/199/149 156/201/150
f 149/178/143 148/177/142 163/200/157 164/202/158
f 142/180/136 141/179/135 156/201/150 157/203/151
f 150/181/144 149/178/143 164/202/158 165/204/159
f 143/182/137 142/180/136 157/203/151 158/205/152
f 151/183/145 150/181/144 165/204/159 166/206/160
f 144/184/138 143/182/137 158/205/152 159/207/153
f 137/186/131 106/208/100 152/209/146
f 332/210/326 151/183/145 166/206/160
f 145/188/139 144/184/138 159/207/153 160/194/154
f 138/189/132 137/186/131 152/209/146 153/196/147
f 165/204/159 164/202/158 179/211/173 180/212/174
f 158/205/152 157/203/151 172/213/166 173/214/167
f 166/206/160 165/204/159 180/212/174 181/215/175
f 159/207/153 158/205/152 173/214/167 174/216/168
f 152/209/146 106/217/100 167/218/161
f 332/219/326 166/206/160 181/215/175
f 160/194/154 159/207/153 174/216/168 175/220/169
f 153/196/147 152/209/146 167/218/161 168/221/162
f 161/195/155 160/194/154 175/220/169 176/222/170
f 154/197/148 153/196/147 168/221/162 169/223/163
f 162/198/156 161/195/155 176/222/170 177/224/171
f 155/199/149 154/197/148 169/223/163 170/225/164
f 163/200/157 162/198/156 177/224/171 178/226/172
f 156/201/150 155/199/149 170/225/164 171/227/165
f 164/202/158 163/200/157 178/226/172 179/211/173
f 157/203/151 156/201/150 171/227/165 172/213/166
f 169/223/163 168/221/162 183/228/177 184/229/178
f 177/224/171 176/222/170 191/230/185 192/231/186
f 170/225/164 169/223/163 184/229/178 185/232/179
f 178/226/172 177/224/171 192/231/186 193/233/187
f 171/227/165 170/225/164 185/232/179 186/234/180
f 179/211/173 178/226/172 193/233/187 194/235/188
f 172/213/166 171/227/165 186/234/180 187/236/181
f 180/212/174 179/211/173 194/235/188 195/237/189
f 173/214/167 172/213/166 187/236/181 188/238/182
f 181/215/175 180/212/174 195/237/189 196/239/190
f 174/216/168 173/214/167 188/238/182 189/240/183
f 167/218/161 106/241/100 182/242/176
f 332/243/326 181/215/175 196/239/190
f 175/220/169 174/216/168 189/240/183 190/244/184
f 168/221/162 167/218/161 182/242/176 183/228/177
f 176/222/170 175/220/169 190/244/184 191/230/185
f 188/238/182 187/236/181 202/245/196 203/246/197
f 196/239/190 195/237/189 210/247/204 211/248/205
f 189/240/183 188/238/182 203/246/197 204/249/198
f 182/242/176 106/250/100 197/251/191
f 332/252/326 196/239/190 211/248/205
f 190/244/184 189/240/183 204/249/198 205/253/199
f 183/228/177 182/242/176 197/251/191 198/254/192
f 191/230/185 190/244/184 205/253/199 206/255/200
f 184/229/178 183/228/177 198/254/192 199/256/193
f 192/231/186 191/230/185 206/255/200 207/257/201
f 185/232/179 184/229/178 199/256/193 200/258/194
f 193/233/187 192/231/186 207/257/201 208/259/202
f 186/234/180 185/232/179 200/258/194 201/260/195
f 194/235/188 193/233/187 208/259/202 209/261/203
f 187/236/181 186/234/180 201/260/195 202/245/196
f 195/237/189 194/235/188 209/261/203 210/247/204
f 207/257/201 206/255/200 221/262/215 222/263/216
f 200/258/194 199/256/193 214/264/208 215/265/209
f 208/259/202 207/257/201 222/263/216 223/266/217
f 201/260/195 200/258/194 215/265/209 216/267/210
f 209/261/203 208/259/202 223/266/217 224/268/218
f 202/245/196 201/260/195 216/267/210 217/269/211
f 210/247/204 209/261/203 224/268/218 225/270/219
f 203/246/197 202/245/196 217/269/211 218/271/212
f 211/248/205 210/247/204 225/270/219 226/272/220
f 204/249/198 203/246/197 218/271/212 219/273/213
f 197/251/191 106/274/100 212/275/206
f 332/276/326 211/248/205 226/272/220
f 205/253/199 204/249/198 219/273/213 220/277/214
f 198/254/192 197/251/191 212/275/206 213/278/207
f 206/255/200 205/253/199 220/277/214 221/262/215
f 199/256/193 198/254/192 213/278/207 214/264/208
f 226/272/220 225/270/219 240/279/234 241/280/235
f 219/273/213 218/271/212 233/281/227 234/282/228
f 212/275/206 106/283/100 227/284/221
f 332/285/326 226/272/220 241/280/235
f 220/277/214 219/273/213 234/282/228 235/286/229
f 213/278/207 212/275/206 227/284/221 228/287/222
f 221/262/215 220/277/214 235/286/229 236/288/230
f 214/264/208 213/278/207 228/287/222 229/289/223
f 222/263/216 221/262/215 236/288/230 237/290/231
f 215/265/209 214/264/208 229/289/223 230/291/224
f 223/266/217 222/263/216 237/290/231 238/292/232
f 216/267/210 215/265/209 230/291/224 231/293/225
f 224/268/218 223/266/217 238/292/232 239/294/233
f 217/269/211 216/267/210 231/293/225 232/295/226
f 225/270/219 224/268/218 239/294/233 240/279/234
f 218/271/212 217/269/211 232/295/226 233/281/227
f 230/291/224 229/289/223 244/296/238 245/297/239
f 238/292/232 237/290/231 252/298/246 253/299/247
f 231/293/225 230/291/224 245/297/239 246/300/240
f 239/294/233 238/292/232 253/299/247 254/301/248
f 232/295/226 231/293/225 246/300/240 247/302/241
f 240/279/234 239/294/233 254/301/248 255/303/249
f 233/281/227 232/295/226 247/302/241 248/304/242
f 241/280/235 240/279/234 255/303/249 256/305/250
f 234/282/228 233/281/227 248/304/242 249/306/243
f 227/284/221 106/307/100 242/308/236
f 332/309/326 241/280/235 256/305/250
f 235/286/229 234/282/228 249/306/243 250/310/244
f 228/287/222 227/284/221 242/308/236 243/311/237
f 236/288/230 235/286/229 250/310/244 251/312/245
f 229/289/223 228/287/222 243/311/237 244/296/238
f 237/290/231 236/288/230 251/312/245 252/298/246
f 249/306/243 248/304/242 263/313/257 264/314/258
f 242/308/236 106/315/100 257/316/251
f 332/317/326 256/305/250 271/318/265
f 250/310/244 249/306/243 264/314/258 265/319/259
f 243/311/237 242/308/236 257/316/251 258/320/252
f 251/312/245 250/310/244 265/319/259 266/321/260
f 244/296/238 243/311/237 258/320/252 259/322/253
f 252/298/246 251/312/245 266/321/260 267/323/261
f 245/297/239 244/296/238 259/322/253 260/324/254
f 253/299/247 252/298/246 267/323/261 268/325/262
f 246/300/240 245/297/239 260/324/254 261/326/255
f 254/301/248 253/299/247 268/325/262 269/327/263
f 247/302/241 246/300/240 261/326/255 262/328/256
f 255/303/249 254/301/248 269/327/263 270/329/264
f 248/304/242 247/302/241 262/328/256 263/313/257
f 256/305/250 255/303/249 270/329/264 271/318/265
f 268/325/262 267/323/261 282/330/276 283/331/277
f 261/326/255 260/324/254 275/332/269 276/333/270
f 269/327/263 268/325/262 283/331/277 284/334/278
f 262/328/256 261/326/255 276/333/270 277/335/271
f 270/329/264 269/327/263 284/334/278 285/336/279
f 263/313/257 262/328/256 277/335/271 278/337/272
f 271/318/265 270/329/264 285/336/279 286/338/280
f 264/314/258 263/313/257 278/337/272 279/339/273
f 257/316/251 106/340/100 272/341/266
f 332/342/326 271/318/265 286/338/280
f 265/319/259 264/314/258 279/339/273 280/343/274
f 258/320/252 257/316/251 272/341/266 273/344/267
f 266/321/260 265/319/259 280/343/274 281/345/275
f 259/322/253 258/320/252 273/344/267 274/346/268
f 267/323/261 266/321/260 281/345/275 282/330/276
f 260/324/254 259/322/253 274/346/268 275/332/269
f 332/347/326 286/338/280 301/348/295
f 280/343/274 279/339/273 294/349/288 295/350/289
f 273/344/267 272/341/266 287/351/281 288/352/282
f 281/345/275 280/343/274 295/350/289 296/353/290
f 274/346/268 273/344/267 288/352/282 289/354/283
f 282/330/276 281/345/275 296/353/290 297/355/291
f 275/332/269 274/346/268 289/354/283 290/356/284
f 283/331/277 282/330/276 297/355/291 298/357/292
f 276/333/270 275/332/269 290/356/284 291/358/285
f 284/334/278 283/331/277 298/357/292 299/359/293
f 277/335/271 276/333/270 291/358/285 292/360/286
f 285/336/279 284/334/278 299/359/293 300/361/294
f 278/337/272 277/335/271 292/360/286 293/362/287
f 286/338/280 285/336/279 300/361/294 301/348/295
f 279/339/273 278/337/272 293/362/287 294/349/288
f 272/341/266 106/363/100 287/351/281
f 299/359/293 298/357/292 313/364/307 314/365/308
f 292/360/286 291/358/285 306/366/300 307/367/301
f 300/361/294 299/359/293 314/365/308 315/368/309
f 293/362/287 292/360/286 307/367/301 308/369/302
f 301/348/295 300/361/294 315/368/309 316/370/310
f 294/349/288 293/362/287 308/369/302 309/371/303
f 287/351/281 106/372/100 302/373/296
f 332/374/326 301/348/295 316/370/310
f 295/350/289 294/349/288 309/371/303 310/375/304
f 288/352/282 287/351/281 302/373/296 303/376/297
f 296/353/290 295/350/289 310/375/304 311/377/305
f 289/354/283 288/352/282 303/376/297 304/378/298
f 297/355/291 296/353/290 311/377/305 312/379/306
f 290/356/284 289/354/283 304/378/298 305/380/299
f 298/357/292 297/355/291 312/379/306 313/364/307
f 291/358/285 290/356/284 305/380/299 306/366/300
f 303/376/297 302/373/296 317/381/311 318/382/312
f 311/377/305 310/375/304 325/383/319 326/384/320
f 304/378/298 303/376/297 318/382/312 319/385/313
f 312/379/306 311/377/305 326/384/320 327/386/321
f 305/380/299 304/378/298 319/385/313 320/387/314
f 313/364/307 312/379/306 327/386/321 328/388/322
f 306/366/300 305/380/299 320/387/314 321/389/315
f 314/365/308 313/364/307 328/388/322 329/390/323
f 307/367/301 306/366/300 321/389/315 322/391/316
f 315/368/309 314/365/308 329/390/323 330/392/324
f 308/369/302 307/367/301 322/391/316 323/393/317
f 316/370/310 315/368/309 330/392/324 331/394/325
f 309/371/303 308/369/302 323/393/317 324/395/318
f 302/373/296 106/396/100 317/381/311
f 332/397/326 316/370/310 331/394/325
f 310/375/304 309/371/303 324/395/318 325/383/319
f 322/391/316 321/389/315 337/398/331 338/399/332
f 330/392/324 329/390/323 345/400/339 346/401/340
f 323/393/317 322/391/316 338/399/332 339/402/333
f 331/394/325 330/392/324 346/401/340 347/403/341
f 324/395/318 323/393/317 339/402/333 340/404/334
f 317/381/311 106/405/100 333/406/327
f 332/407/326 331/394/325 347/403/341
f 325/383/319 324/395/318 340/404/334 341/408/335
f 318/382/312 317/381/311 333/406/327 334/409/328
f 326/384/320 325/383/319 341/408/335 342/410/336
f 319/385/313 318/382/312 334/409/328 335/411/329
f 327/386/321 326/384/320 342/410/336 343/412/337
f 320/387/314 319/385/313 335/411/329 336/413/330
f 328/388/322 327/386/321 343/412/337 344/414/338
f 321/389/315 320/387/314 336/413/330 337/398/331
f 329/390/323 328/388/322 344/414/338 345/400/339
f 342/410/336 341/408/335 356/415/350 357/416/351
f 335/411/329 334/409/328 349/417/343 350/418/344
f 343/412/337 342/410/336 357/416/351 358/419/352
f 336/413/330 335/411/329 350/418/344 351/420/345
f 344/414/338 343/412/337 358/419/352 359/421/353
f 337/398/331 336/413/330 351/420/345 352/422/346
f 345/400/339 344/414/338 359/421/353 360/423/354
f 338/399/332 337/398/331 352/422/346 353/424/347
f 346/401/340 345/400/339 360/423/354 361/425/355
f 339/402/333 338/399/332 353/424/347 354/426/348
f 347/403/341 346/401/340 361/425/355 362/427/356
f 340/404/334 339/402/333 354/426/348 355/428/349
f 333/406/327 106/429/100 348/430/342
f 332/431/326 347/403/341 362/427/356
f 341/408/335 340/404/334 355/428/349 356/415/350
f 334/409/328 333/406/327 348/430/342 349/417/343
f 361/425/355 360/423/354 375/432/369 376/433/370
f 354/426/348 353/424/347 368/434/362 369/435/363
f 362/427/356 361/425/355 376/433/370 377/436/371
f 355/428/349 354/426/348 369/435/363 370/437/364
f 348/430/342 106/438/100 363/439/357
f 332/440/326 362/427/356 377/436/371
f 356/415/350 355/428/349 370/437/364 371/441/365
f 349/417/343 348/430/342 363/439/357 364/442/358
f 357/416/351 356/415/350 371/441/365 372/443/366
f 350/418/344 349/417/343 364/442/358 365/444/359
f 358/419/352 357/416/351 372/443/366 373/445/367
f 351/420/345 350/418/344 365/444/359 366/446/360
f 359/421/353 358/419/352 373/445/367 374/447/368
f 352/422/346 351/420/345 366/446/360 367/448/361
f 360/423/354 359/421/353 374/447/368 375/432/369
f 353/424/347 352/422/346 367/448/361 368/434/362
f 365/444/359 364/442/358 379/449/373 380/450/374
f 373/445/367 372/443/366 387/451/381 388/452/382
f 366/446/360 365/444/359 380/450/374 381/453/375
f 374/447/368 373/445/367 388/452/382 389/454/383
f 367/448/361 366/446/360 381/453/375 382/455/376
f 375/432/369 374/447/368 389/454/383 390/456/384
f 368/434/362 367/448/361 382/455/376 383/457/377
f 376/433/370 375/432/369 390/456/384 391/458/385
f 369/435/363 368/434/362 383/457/377 384/459/378
f 377/436/371 376/433/370 391/458/385 392/460/386
f 370/437/364 369/435/363 384/459/378 385/461/379
f 363/439/357 106/462/100 378/463/372
f 332/464/326 377/436/371 392/460/386
f 371/441/365 370/437/364 385/461/379 386/465/380
f 364/442/358 363/439/357 378/463/372 379/449/373
f 372/443/366 371/441/365 386/465/380 387/451/381
f 384/466/378 383/467/377 398/468/392 399/469/393
f 392/470/386 391/471/385 406/472/400 407/473/401
f 385/474/379 384/466/378 399/469/393 400/475/394
f 378/476/372 106/477/100 393/478/387
f 332/479/326 392/470/386 407/473/401
f 386/480/380 385/474/379 400/475/394 401/481/395
f 379/482/373 378/476/372 393/478/387 394/483/388
f 387/484/381 386/480/380 401/481/395 402/485/396
f 380/486/374 379/482/373 394/483/388 395/487/389
f 388/488/382 387/484/381 402/485/396 403/489/397
f 381/490/375 380/486/374 395/487/389 396/491/390
f 389/492/383 388/488/382 403/489/397 404/493/398
f 382/494/376 381/490/375 396/491/390 397/495/391
f 390/496/384 389/492/383 404/493/398 405/497/399
f 383/467/377 382/494/376 397/495/391 398/468/392
f 391/471/385 390/496/384 405/497/399 406/472/400
f 403/489/397 402/485/396 417/498/411 418/499/412
f 396/491/390 395/487/389 410/500/404 411/501/405
f 404/493/398 403/489/397 418/499/412 419/502/413
f 397/495/391 396/491/390 411/501/405 412/503/406
f 405/497/399 404/493/398 419/502/413 420/504/414
f 398/468/392 397/495/391 412/503/406 413/505/407
f 406/472/400 405/497/399 420/504/414 421/506/415
f 399/469/393 398/468/392 413/505/407 414/507/408
f 407/473/401 406/472/400 421/506/415 422/508/416
f 400/475/394 399/469/393 414/507/408 415/509/409
f 393/478/387 106/510/100 408/511/402
f 332/512/326 407/473/401 422/508/416
f 401/481/395 400/475/394 415/509/409 416/513/410
f 394/483/388 393/478/387 408/511/402 409/514/403
f 402/485/396 401/481/395 416/513/410 417/498/411
f 395/487/389 394/483/388 409/514/403 410/500/404
f 422/508/416 421/506/415 436/515/430 437/516/431
f 415/509/409 414/507/408 429/517/423 430/518/424
f 408/511/402 106/519/100 423/520/417
f 332/521/326 422/508/416 437/516/431
f 416/513/410 415/509/409 430/518/424 431/522/425
f 409/514/403 408/511/402 423/520/417 424/523/418
f 417/498/411 416/513/410 431/522/425 432/524/426
f 410/500/404 409/514/403 424/523/418 425/525/419
f 418/499/412 417/498/411 432/524/426 433/526/427
f 411/501/405 410/500/404 425/525/419 426/527/420
f 419/502/413 418/499/412 433/526/427 434/528/428
f 412/503/406 411/501/405 426/527/420 427/529/421
f 420/504/414 419/502/413 434/528/428 435/530/429
f 413/505/407 412/503/406 427/529/421 428/531/422
f 421/506/415 420/504/414 435/530/429 436/515/430
f 414/507/408 413/505/407 428/531/422 429/517/423
f 434/528/428 433/526/427 448/532/442 449/533/443
f 427/529/421 426/527/420 441/534/435 442/535/436
f 435/530/429 434/528/428 449/533/443 450/536/444
f 428/531/422 427/529/421 442/535/436 443/537/437
f 436/515/430 435/530/429 450/536/444 451/538/445
f 429/517/423 428/531/422 443/537/437 444/539/438
f 437/516/431 436/515/430 451/538/445 452/540/446
f 430/518/424 429/517/423 444/539/438 445/541/439
f 423/520/417 106/542/100 438/543/432
f 332/544/326 437/516/431 452/540/446
f 431/522/425 430/518/424 445/541/439 446/545/440
f 424/523/418 423/520/417 438/543/432 439/546/433
f 432/524/426 431/522/425 446/545/440 447/547/441
f 425/525/419 424/523/418 439/546/433 440/548/434
f 433/526/427 432/524/426 447/547/441 448/532/442
f 426/527/420 425/525/419 440/548/434 441/534/435
f 438/543/432 106/549/100 453/550/447
f 332/551/326 452/540/446 467/552/461
f 446/545/440 445/541/439 460/553/454 461/554/455
f 439/546/433 438/543/432 453/550/447 454/555/448
f 447/547/441 446/545/440 461/554/455 462/556/456
f 440/548/434 439/546/433 454/555/448 455/557/449
f 448/532/442 447/547/441 462/556/456 463/558/457
f 441/534/435 440/548/434 455/557/449 456/559/450
f 449/533/443 448/532/442 463/558/457 464/560/458
f 442/535/436 441/534/435 456/559/450 457/561/451
f 450/536/444 449/533/443 464/560/458 465/562/459
f 443/537/437 442/535/436 457/561/451 458/563/452
f 451/538/445 450/536/444 465/562/459 466/564/460
f 444/539/438 443/537/437 458/563/452 459/565/453
f 452/540/446 451/538/445 466/564/460 467/552/461
f 445/541/439 444/539/438 459/565/453 460/553/454
f 457/561/451 456/559/450 471/566/465 472/567/466
f 465/562/459 464/560/458 479/568/473 480/569/474
f 458/563/452 457/561/451 472/567/466 473/570/467
f 466/564/460 465/562/459 480/569/474 481/571/475
f 459/565/453 458/563/452 473/570/467 474/572/468
f 467/552/461 466/564/460 481/571/475 482/573/476
f 460/553/454 459/565/453 474/572/468 475/574/469
f 453/550/447 106/575/100 468/576/462
f 332/577/326 467/552/461 482/573/476
f 461/554/455 460/553/454 475/574/469 476/578/470
f 454/555/448 453/550/447 468/576/462 469/579/463
f 462/556/456 461/554/455 476/578/470 477/580/471
f 455/557/449 454/555/448 469/579/463 470/581/464
f 463/558/457 462/556/456 477/580/471 478/582/472
f 456/559/450 455/557/449 470/581/464 471/566/465
f 464/560/458 463/558/457 478/582/472 479/568/473
f 476/578/470 475/574/469 490/583/484 491/584/485
f 469/579/463 468/576/462 483/585/477 484/586/478
f 477/580/471 476/578/470 491/584/485 492/587/486
f 470/581/464 469/579/463 484/586/478 485/588/479
f 478/582/472 477/580/471 492/587/486 493/589/487
f 471/566/465 470/581/464 485/588/479 486/590/480
f 479/568/473 478/582/472 493/589/487 494/591/488
f 472/567/466 471/566/465 486/590/480 487/592/481
f 480/569/474 479/568/473 494/591/488 495/593/489
f 473/570/467 472/567/466 487/592/481 488/594/482
f 481/571/475 480/569/474 495/593/489 496/595/490
f 474/572/468 473/570/467 488/594/482 489/596/483
f 482/573/476 481/571/475 496/595/490 497/597/491
f 475/574/469 474/572/468 489/596/483 490/583/484
f 468/576/462 106/598/100 483/585/477
f 332/599/326 482/573/476 497/597/491
f 495/593/489 494/591/488 503/48/497 504/47/498
f 488/594/482 487/592/481 26/43/20 501/51/495
f 496/595/490 495/593/489 504/47/498 505/53/499
f 489/596/483 488/594/482 501/51/495 27/55/21
f 497/597/491 496/595/490 505/53/499 506/57/500
f 490/583/484 489/596/483 27/55/21 28/59/22
f 483/585/477 106/600/100 498/61/492
f 332/601/326 497/597/491 506/57/500
f 491/584/485 490/583/484 28/59/22 29/65/23
f 484/586/478 483/585/477 498/61/492 499/67/493
f 492/587/486 491/584/485 29/65/23 502/69/496
f 485/588/479 484/586/478 499/67/493 25/71/19
f 493/589/487 492/587/486 502/69/496 30/73/24
f 486/590/480 485/588/479 25/71/19 500/44/494
f 494/591/488 493/589/487 30/73/24 503/48/497
f 487/592/481 486/590/480 500/44/494 26/43/20
o Cube.003
v -1.273588 0.458939 0.475367
v -1.273588 0.509779 0.475367
v -1.273588 0.458939 0.419382
v -1.273588 0.509779 0.419382
v -1.176953 0.458939 0.475367
v -1.176953 0.509779 0.475367
v -1.176953 0.458939 0.419382
v -1.176953 0.509779 0.419382
vn -1.0000 -0.0000 -0.0000
vn -0.0000 -0.0000 -1.0000
vn 1.0000 -0.0000 -0.0000
vn -0.0000 -0.0000 1.0000
vn -0.0000 -1.0000 -0.0000
vn -0.0000 1.0000 -0.0000
vt 0.375000 0.000000
vt 0.625000 0.000000
vt 0.625000 0.250000
vt 0.375000 0.250000
vt 0.625000 0.500000
vt 0.375000 0.500000
vt 0.625000 0.750000
vt 0.375000 0.750000
vt 0.625000 1.000000
vt 0.375000 1.000000
vt 0.125000 0.500000
vt 0.125000 0.750000
vt 0.875000 0.500000
vt 0.875000 0.750000
s 0
f 507/602/501 508/603/501 510/604/501 509/605/501
f 509/605/502 510/604/502 514/606/502 513/607/502
f 513/607/503 514/606/503 512/608/503 511/609/503
f 511/609/504 512/608/504 508/610/504 507/611/504
f 509/612/505 513/607/505 511/609/505 507/613/505
f 514/606/506 510/614/506 508/615/506 512/608/506
