# Blender 4.4.3
# www.blender.org
mtllib house models 3.mtl
o Cube.004
v 1.986366 2.593692 12.851668
v 1.986366 -1.363508 12.851668
v 1.986366 2.593692 15.934354
v 1.986366 -1.363508 15.934354
v -1.096320 2.593692 12.851668
v -1.096320 -1.363508 12.851668
v -1.096320 2.593692 15.934354
v -1.096320 -1.363508 15.934354
vn -0.0000 1.0000 -0.0000
vn -0.0000 -0.0000 1.0000
vn -1.0000 -0.0000 -0.0000
vn -0.0000 -1.0000 -0.0000
vn 1.0000 -0.0000 -0.0000
vn -0.0000 -0.0000 -1.0000
vt 0.625000 0.500000
vt 0.875000 0.500000
vt 0.875000 0.750000
vt 0.625000 0.750000
vt 0.375000 0.750000
vt 0.625000 1.000000
vt 0.375000 1.000000
vt 0.375000 0.000000
vt 0.625000 0.000000
vt 0.625000 0.250000
vt 0.375000 0.250000
vt 0.125000 0.500000
vt 0.375000 0.500000
vt 0.125000 0.750000
s 0
usemtl Material
f 1/1/1 5/2/1 7/3/1 3/4/1
f 4/5/2 3/4/2 7/6/2 8/7/2
f 8/8/3 7/9/3 5/10/3 6/11/3
f 6/12/4 2/13/4 4/5/4 8/14/4
f 2/13/5 1/1/5 3/4/5 4/5/5
f 6/11/6 5/10/6 1/1/6 2/13/6
o Cube.005
v -1.074932 2.597802 15.912967
v 0.445023 4.732379 14.393011
v -1.074932 2.597802 12.873055
v 1.964978 2.597802 15.912967
v 1.964978 2.597802 12.873055
vn -0.8146 0.5800 -0.0000
vn -0.0000 0.5800 -0.8146
vn 0.8146 0.5800 -0.0000
vn -0.0000 0.5800 0.8146
vn -0.0000 -1.0000 -0.0000
vt 0.375000 0.000000
vt 0.625000 0.250000
vt 0.375000 0.250000
vt 0.625000 0.500000
vt 0.375000 0.500000
vt 0.625000 0.750000
vt 0.375000 0.750000
vt 0.625000 1.000000
vt 0.375000 1.000000
vt 0.125000 0.500000
vt 0.125000 0.750000
s 0
f 9/15/7 10/16/7 11/17/7
f 11/17/8 10/18/8 13/19/8
f 13/19/9 10/20/9 12/21/9
f 12/21/10 10/22/10 9/23/10
f 11/24/11 13/19/11 12/21/11 9/25/11
